<?xml version="1.0" encoding="UTF-8"?>
<svg version="1.1" xmlns="http://www.w3.org/2000/svg" width="1048" height="124">
<path d="M0 0 C345.84 0 691.68 0 1048 0 C1048 40.92 1048 81.84 1048 124 C702.16 124 356.32 124 0 124 C0 83.08 0 42.16 0 0 Z " fill="#22B04C" transform="translate(0,0)"/>
<path d="M0 0 C4.21121421 4.31148121 6.35793469 7.58436071 7.125 13.625 C6.69522442 20.80641136 2.7903885 26.25813093 -2.3515625 31.03125 C-12.65458733 39.46461395 -26.06482072 44.34300124 -39.375 44.6875 C-39.375 45.3475 -39.375 46.0075 -39.375 46.6875 C-38.65183594 46.94015625 -37.92867187 47.1928125 -37.18359375 47.453125 C-32.26441697 49.61509978 -28.44100523 53.23010065 -24.375 56.6875 C-23.70984375 57.23148438 -23.0446875 57.77546875 -22.359375 58.3359375 C-20.6875 59.8125 -20.6875 59.8125 -18.375 62.6875 C-18.70264999 67.30081185 -20.23732601 71.29026793 -21.9375 75.5625 C-22.39253906 76.71492188 -22.84757813 77.86734375 -23.31640625 79.0546875 C-23.66574219 79.92351562 -24.01507812 80.79234375 -24.375 81.6875 C-25.303125 80.883125 -26.23125 80.07875 -27.1875 79.25 C-31.19523254 75.81365101 -35.28346028 72.48027266 -39.375 69.14453125 C-44.40334877 65.02626123 -49.3883548 60.85609172 -54.375 56.6875 C-54.96410156 57.42742187 -55.55320312 58.16734375 -56.16015625 58.9296875 C-65.8449772 70.98874145 -65.8449772 70.98874145 -70.375 72.6875 C-73.95196189 72.75253567 -76.30342301 72.53818173 -79.15625 70.2734375 C-80.6284415 68.8081903 -82.00958684 67.25272971 -83.375 65.6875 C-82.06438409 61.45320244 -80.43143741 57.61342596 -78.375 53.6875 C-74.93817596 54.80446781 -71.53711998 55.98690724 -68.15625 57.26171875 C-67.44533203 57.52944092 -66.73441406 57.79716309 -66.00195312 58.07299805 C-65.19661133 58.37717651 -65.19661133 58.37717651 -64.375 58.6875 C-56.93191173 49.20504359 -49.81705561 39.68886931 -43.46630859 29.4375 C-41.49092157 26.26981003 -39.46040825 23.13746386 -37.4375 20 C-37.05948242 19.41130127 -36.68146484 18.82260254 -36.29199219 18.21606445 C-34.67189234 15.69307334 -33.03826082 13.18239123 -31.375 10.6875 C-44.53261778 10.02961911 -57.25271613 14.33275872 -68.5 21.0625 C-69.44875 21.59875 -70.3975 22.135 -71.375 22.6875 C-72.035 22.3575 -72.695 22.0275 -73.375 21.6875 C-67.90819123 9.54131961 -59.9257464 3.48609268 -47.7109375 -1.1640625 C-32.20611463 -6.66602812 -14.20207655 -10.66922168 0 0 Z " fill="#B67B56" transform="translate(604.375,26.3125)"/>
<path d="M0 0 C4.21121421 4.31148121 6.35793469 7.58436071 7.125 13.625 C6.69522442 20.80641136 2.7903885 26.25813093 -2.3515625 31.03125 C-12.65458733 39.46461395 -26.06482072 44.34300124 -39.375 44.6875 C-39.375 45.3475 -39.375 46.0075 -39.375 46.6875 C-38.65183594 46.94015625 -37.92867187 47.1928125 -37.18359375 47.453125 C-32.26441697 49.61509978 -28.44100523 53.23010065 -24.375 56.6875 C-23.70984375 57.23148438 -23.0446875 57.77546875 -22.359375 58.3359375 C-20.6875 59.8125 -20.6875 59.8125 -18.375 62.6875 C-18.70264999 67.30081185 -20.23732601 71.29026793 -21.9375 75.5625 C-22.39253906 76.71492188 -22.84757812 77.86734375 -23.31640625 79.0546875 C-23.66574219 79.92351562 -24.01507813 80.79234375 -24.375 81.6875 C-25.303125 80.883125 -26.23125 80.07875 -27.1875 79.25 C-31.19523254 75.81365101 -35.28346028 72.48027266 -39.375 69.14453125 C-44.40334877 65.02626123 -49.3883548 60.85609172 -54.375 56.6875 C-54.96410156 57.42742187 -55.55320312 58.16734375 -56.16015625 58.9296875 C-65.8449772 70.98874145 -65.8449772 70.98874145 -70.375 72.6875 C-73.95196189 72.75253567 -76.30342301 72.53818173 -79.15625 70.2734375 C-80.6284415 68.8081903 -82.00958684 67.25272971 -83.375 65.6875 C-82.06438409 61.45320244 -80.43143741 57.61342596 -78.375 53.6875 C-74.93817596 54.80446781 -71.53711998 55.98690724 -68.15625 57.26171875 C-67.44533203 57.52944092 -66.73441406 57.79716309 -66.00195312 58.07299805 C-65.19661133 58.37717651 -65.19661133 58.37717651 -64.375 58.6875 C-56.93191173 49.20504359 -49.81705561 39.68886931 -43.46630859 29.4375 C-41.49092157 26.26981003 -39.46040825 23.13746386 -37.4375 20 C-37.05948242 19.41130127 -36.68146484 18.82260254 -36.29199219 18.21606445 C-34.67189234 15.69307334 -33.03826082 13.18239123 -31.375 10.6875 C-44.53261778 10.02961911 -57.25271613 14.33275872 -68.5 21.0625 C-69.44875 21.59875 -70.3975 22.135 -71.375 22.6875 C-72.035 22.3575 -72.695 22.0275 -73.375 21.6875 C-67.90819123 9.54131961 -59.9257464 3.48609268 -47.7109375 -1.1640625 C-32.20611463 -6.66602812 -14.20207655 -10.66922168 0 0 Z " fill="#B67B56" transform="translate(89.375,26.3125)"/>
<path d="M0 0 C3.17871137 2.45598625 5.21663992 5.43327983 7 9 C7.07116382 11.37402501 7.08409085 13.75000677 7.0625 16.125 C7.05347656 17.40632813 7.04445313 18.68765625 7.03515625 20.0078125 C7.02355469 20.99523437 7.01195312 21.98265625 7 23 C4.28220733 21.71262452 1.93604763 20.25224478 -0.5 18.5 C-5.59926815 15.22603806 -11.07354649 14.66178731 -17 14 C-16.85795259 15.58367747 -16.71119847 17.16693318 -16.5625 18.75 C-16.48128906 19.63171875 -16.40007813 20.5134375 -16.31640625 21.421875 C-16.03761535 23.69350452 -15.61209423 25.79851823 -15 28 C-9.21197166 29.70906349 -3.62455004 31.09046978 2.375 31.8125 C6.23529103 32.40831664 8.58554007 32.88312101 11.1875 35.875 C14.38048408 41.38014497 14.38048408 41.38014497 13.46875 45.26171875 C6.35831811 63.06646958 -8.79465414 73.48053775 -25.6640625 81.22265625 C-32.32923468 83.44066505 -38.62814967 82.56065559 -44.9375 79.6875 C-51.94733024 75.85399909 -57.37488137 70.60879027 -63 65 C-63.93328125 64.16210938 -64.8665625 63.32421875 -65.828125 62.4609375 C-68 60 -68 60 -68.48828125 57.54296875 C-68.32552083 55.36197917 -68.16276042 53.18098958 -68 51 C-60.13207862 52.3471336 -53.62715306 55.28306552 -46.5 58.8125 C-45.42363281 59.33392578 -44.34726562 59.85535156 -43.23828125 60.39257812 C-37.6740705 63.10690992 -32.22862883 65.91720814 -26.91992188 69.10546875 C-24.16496168 70.3890616 -21.99157748 70.39614857 -19.05078125 69.77734375 C-13.83829584 67.80156357 -9.42764627 64.77374234 -5.9375 60.4375 C-4.91516729 57.77943496 -4.7579414 55.82401702 -5 53 C-8.97996795 51.18305811 -12.76022393 49.77661679 -17 48.6875 C-22.64634838 47.05212471 -27.00373985 44.18996977 -30.15625 39.15234375 C-32.32452703 33.62122965 -31.81082587 27.44789255 -29.97265625 21.8984375 C-24.47350911 10.10802229 -14.68719983 -3.42780677 0 0 Z " fill="#B67A56" transform="translate(829,20)"/>
<path d="M0 0 C0 20.13 0 40.26 0 61 C-14 64 -14 64 -17 64 C-17.33 58.72 -17.66 53.44 -18 48 C-19.98195646 50.12245714 -21.96064257 52.24780268 -23.9375 54.375 C-24.50146484 54.97828125 -25.06542969 55.5815625 -25.64648438 56.203125 C-26.45375977 57.07324219 -26.45375977 57.07324219 -27.27734375 57.9609375 C-28.02359009 58.76217041 -28.02359009 58.76217041 -28.78491211 59.57958984 C-30.10293508 61.0045475 -30.10293508 61.0045475 -31 63 C-34.18339014 62.7106009 -36.46639976 62.34867019 -39.1640625 60.5859375 C-42.01092939 56.5760952 -41.68172357 52.68065408 -41.625 47.875 C-41.61662109 46.92737793 -41.60824219 45.97975586 -41.59960938 45.00341797 C-41.36112058 37.64705345 -40.1487276 32.48832453 -35 27 C-34.37351563 26.28199219 -33.74703125 25.56398438 -33.1015625 24.82421875 C-28.52227751 20.16348403 -28.52227751 20.16348403 -24.78125 19.76171875 C-21.9789624 20.07139184 -19.52347239 20.7382638 -17 22 C-17 15.73 -17 9.46 -17 3 C-3.375 0 -3.375 0 0 0 Z " fill="#B47B56" transform="translate(259,21)"/>
<path d="M0 0 C10.9030266 2.23619433 10.9030266 2.23619433 14.6015625 5.90234375 C17.88263647 11.19693149 16.77678435 18.09627048 16.62109375 24.06640625 C16.60304688 25.37480469 16.585 26.68320313 16.56640625 28.03125 C16.51939359 31.25161703 16.44765439 34.47160619 16.37109375 37.69140625 C11.42109375 39.01140625 6.47109375 40.33140625 1.37109375 41.69140625 C1.04109375 36.74140625 0.71109375 31.79140625 0.37109375 26.69140625 C-1.14484375 28.45484375 -1.14484375 28.45484375 -2.69140625 30.25390625 C-4.0010892 31.73556777 -5.31368107 33.21466219 -6.62890625 34.69140625 C-7.54349609 35.74328125 -7.54349609 35.74328125 -8.4765625 36.81640625 C-10.1207466 38.6087476 -11.68116237 40.23410148 -13.62890625 41.69140625 C-16.31640625 41.75390625 -16.31640625 41.75390625 -18.62890625 40.69140625 C-19.37140625 40.46453125 -20.11390625 40.23765625 -20.87890625 40.00390625 C-22.62890625 38.69140625 -22.62890625 38.69140625 -23.21875 36.1328125 C-25.54820816 16.58754928 -25.54820816 16.58754928 -20.97265625 9.33203125 C-14.34123026 1.23552277 -10.59447914 -1.87795115 0 0 Z " fill="#B67B56" transform="translate(902.62890625,43.30859375)"/>
<path d="M0 0 C10.9030266 2.23619433 10.9030266 2.23619433 14.6015625 5.90234375 C17.88263647 11.19693149 16.77678435 18.09627048 16.62109375 24.06640625 C16.60304688 25.37480469 16.585 26.68320313 16.56640625 28.03125 C16.51939359 31.25161703 16.44765439 34.47160619 16.37109375 37.69140625 C11.42109375 39.01140625 6.47109375 40.33140625 1.37109375 41.69140625 C1.04109375 36.74140625 0.71109375 31.79140625 0.37109375 26.69140625 C-1.14484375 28.45484375 -1.14484375 28.45484375 -2.69140625 30.25390625 C-4.0010892 31.73556777 -5.31368107 33.21466219 -6.62890625 34.69140625 C-7.54349609 35.74328125 -7.54349609 35.74328125 -8.4765625 36.81640625 C-10.1207466 38.6087476 -11.68116237 40.23410148 -13.62890625 41.69140625 C-16.31640625 41.75390625 -16.31640625 41.75390625 -18.62890625 40.69140625 C-19.37140625 40.46453125 -20.11390625 40.23765625 -20.87890625 40.00390625 C-22.62890625 38.69140625 -22.62890625 38.69140625 -23.21875 36.1328125 C-25.54820816 16.58754928 -25.54820816 16.58754928 -20.97265625 9.33203125 C-14.34123026 1.23552277 -10.59447914 -1.87795115 0 0 Z " fill="#B67B56" transform="translate(677.62890625,43.30859375)"/>
<path d="M0 0 C10.9030266 2.23619433 10.9030266 2.23619433 14.6015625 5.90234375 C17.88263647 11.19693149 16.77678435 18.09627048 16.62109375 24.06640625 C16.60304688 25.37480469 16.585 26.68320313 16.56640625 28.03125 C16.51939359 31.25161703 16.44765439 34.47160619 16.37109375 37.69140625 C11.42109375 39.01140625 6.47109375 40.33140625 1.37109375 41.69140625 C1.04109375 36.74140625 0.71109375 31.79140625 0.37109375 26.69140625 C-1.14484375 28.45484375 -1.14484375 28.45484375 -2.69140625 30.25390625 C-4.0010892 31.73556777 -5.31368107 33.21466219 -6.62890625 34.69140625 C-7.54349609 35.74328125 -7.54349609 35.74328125 -8.4765625 36.81640625 C-10.1207466 38.6087476 -11.68116237 40.23410148 -13.62890625 41.69140625 C-16.31640625 41.75390625 -16.31640625 41.75390625 -18.62890625 40.69140625 C-19.37140625 40.46453125 -20.11390625 40.23765625 -20.87890625 40.00390625 C-22.62890625 38.69140625 -22.62890625 38.69140625 -23.21875 36.1328125 C-25.54820816 16.58754928 -25.54820816 16.58754928 -20.97265625 9.33203125 C-14.34123026 1.23552277 -10.59447914 -1.87795115 0 0 Z " fill="#B67B56" transform="translate(436.62890625,43.30859375)"/>
<path d="M0 0 C1.12148438 0.04833984 2.24296875 0.09667969 3.3984375 0.14648438 C5.161875 0.2305957 5.161875 0.2305957 6.9609375 0.31640625 C8.14429688 0.36861328 9.32765625 0.42082031 10.546875 0.47460938 C13.47677981 0.60456483 16.40639051 0.74112003 19.3359375 0.87890625 C18.6759375 4.83890625 18.0159375 8.79890625 17.3359375 12.87890625 C14.891875 12.38390625 14.891875 12.38390625 12.3984375 11.87890625 C7.27058318 10.93569989 2.5388669 10.7083184 -2.6640625 10.87890625 C-2.6640625 11.53890625 -2.6640625 12.19890625 -2.6640625 12.87890625 C3.56753921 14.8916975 9.25610175 15.19355495 15.8125 15.33984375 C19.8681906 15.96033743 21.55271555 16.89688273 24.3359375 19.87890625 C25.5622143 23.71643128 24.93258783 27.47129854 23.37890625 31.13671875 C20.15285303 36.68757857 16.96896994 38.96931323 10.8984375 41.06640625 C1.29839896 43.19368752 -8.11566164 42.94462528 -16.6640625 37.87890625 C-16.1690625 34.90890625 -16.1690625 34.90890625 -15.6640625 31.87890625 C-12.51839981 30.86577615 -10.58196629 30.94466294 -7.4140625 31.81640625 C-1.36694658 33.28840157 4.23887501 33.40317187 10.3359375 31.87890625 C10.3359375 31.21890625 10.3359375 30.55890625 10.3359375 29.87890625 C9.11777344 29.84152344 7.89960937 29.80414063 6.64453125 29.765625 C5.0208046 29.69992508 3.39710801 29.63347916 1.7734375 29.56640625 C0.57364258 29.53256836 0.57364258 29.53256836 -0.65039062 29.49804688 C-5.99991257 29.25786426 -9.91692033 28.40385304 -14.6640625 25.87890625 C-17.52152344 22.65510417 -18.55456989 20.64535452 -19.1640625 16.37890625 C-18.13938063 9.20613315 -13.18509952 5.05368055 -7.6640625 0.87890625 C-4.96635992 -0.46994504 -3.01132875 -0.13687858 0 0 Z " fill="#B57B56" transform="translate(1016.6640625,42.12109375)"/>
<path d="M0 0 C1.12148437 0.04833984 2.24296875 0.09667969 3.3984375 0.14648438 C5.161875 0.2305957 5.161875 0.2305957 6.9609375 0.31640625 C8.14429688 0.36861328 9.32765625 0.42082031 10.546875 0.47460938 C13.47677981 0.60456483 16.40639051 0.74112003 19.3359375 0.87890625 C18.6759375 4.83890625 18.0159375 8.79890625 17.3359375 12.87890625 C14.891875 12.38390625 14.891875 12.38390625 12.3984375 11.87890625 C7.27058318 10.93569989 2.5388669 10.7083184 -2.6640625 10.87890625 C-2.6640625 11.53890625 -2.6640625 12.19890625 -2.6640625 12.87890625 C3.56753921 14.8916975 9.25610175 15.19355495 15.8125 15.33984375 C19.8681906 15.96033743 21.55271555 16.89688273 24.3359375 19.87890625 C25.5622143 23.71643128 24.93258783 27.47129854 23.37890625 31.13671875 C20.15285303 36.68757857 16.96896994 38.96931323 10.8984375 41.06640625 C1.29839896 43.19368752 -8.11566164 42.94462528 -16.6640625 37.87890625 C-16.1690625 34.90890625 -16.1690625 34.90890625 -15.6640625 31.87890625 C-12.51839981 30.86577615 -10.58196629 30.94466294 -7.4140625 31.81640625 C-1.36694658 33.28840157 4.23887501 33.40317187 10.3359375 31.87890625 C10.3359375 31.21890625 10.3359375 30.55890625 10.3359375 29.87890625 C9.11777344 29.84152344 7.89960938 29.80414063 6.64453125 29.765625 C5.0208046 29.69992508 3.39710801 29.63347916 1.7734375 29.56640625 C0.57364258 29.53256836 0.57364258 29.53256836 -0.65039062 29.49804688 C-5.99991257 29.25786426 -9.91692033 28.40385304 -14.6640625 25.87890625 C-17.52152344 22.65510417 -18.55456989 20.64535452 -19.1640625 16.37890625 C-18.13938063 9.20613315 -13.18509952 5.05368055 -7.6640625 0.87890625 C-4.96635992 -0.46994504 -3.01132875 -0.13687858 0 0 Z " fill="#B57B56" transform="translate(157.6640625,42.12109375)"/>
<path d="M0 0 C0.33 1.98 0.66 3.96 1 6 C1.64066406 5.55527344 2.28132813 5.11054687 2.94140625 4.65234375 C10.00239808 0.03270826 10.00239808 0.03270826 14.8125 -0.125 C18.87474559 1.30873374 22.02690071 3.05380143 24 7 C24.24113512 11.3348244 24.17918902 15.64766838 24.04492188 19.98388672 C24.00346927 21.84429772 24.03737086 23.70597982 24.078125 25.56640625 C23.9212852 29.25649827 23.62168394 31.66434117 22 35 C17.65064918 38.97798213 12.28956914 41.50965541 7 44 C5.88985134 40.64626419 6.15941637 38.41746534 6.9375 35 C8.69110897 26.06494475 8.68243714 17.7179207 6 9 C4.02 9.99 4.02 9.99 2 11 C1.67 20.57 1.34 30.14 1 40 C-6.92 40.99 -6.92 40.99 -15 42 C-15 29.79 -15 17.58 -15 5 C-1 0 -1 0 0 0 Z " fill="#B57B56" transform="translate(321,42)"/>
<path d="M0 0 C2.31354403 1.16700893 3.69461484 2.00670125 5.20703125 4.11328125 C5.68992418 7.45329069 5.38538975 10.75069885 5.20703125 14.11328125 C5.24828125 15.22703125 5.28953125 16.34078125 5.33203125 17.48828125 C3.90934453 20.80788359 2.84412669 21.03691941 -0.41796875 22.42578125 C-4.54737315 23.85564685 -8.44689798 24.73536205 -12.79296875 25.11328125 C-11.33253481 26.86303592 -11.33253481 26.86303592 -8.79296875 28.11328125 C-4.61319382 28.13591541 -0.74829651 27.43172384 3.20703125 26.11328125 C1.53598273 32.10120513 -0.45631313 35.75802099 -5.91796875 38.92578125 C-11.35223748 40.97534381 -17.26800553 41.10131034 -22.66796875 38.98828125 C-27.28421564 34.91512223 -28.9951272 31.68967119 -29.53515625 25.59375 C-30.14582922 10.02035816 -30.14582922 10.02035816 -27.11328125 3.50390625 C-19.85231627 -4.17266952 -9.37082852 -2.97507423 0 0 Z " fill="#B77A56" transform="translate(987.79296875,43.88671875)"/>
<path d="M0 0 C2.31354403 1.16700893 3.69461484 2.00670125 5.20703125 4.11328125 C5.68992418 7.45329069 5.38538975 10.75069885 5.20703125 14.11328125 C5.24828125 15.22703125 5.28953125 16.34078125 5.33203125 17.48828125 C3.90934453 20.80788359 2.84412669 21.03691941 -0.41796875 22.42578125 C-4.54737315 23.85564685 -8.44689798 24.73536205 -12.79296875 25.11328125 C-11.33253481 26.86303592 -11.33253481 26.86303592 -8.79296875 28.11328125 C-4.61319382 28.13591541 -0.74829651 27.43172384 3.20703125 26.11328125 C1.53598273 32.10120513 -0.45631313 35.75802099 -5.91796875 38.92578125 C-11.35223748 40.97534381 -17.26800553 41.10131034 -22.66796875 38.98828125 C-27.28421564 34.91512223 -28.9951272 31.68967119 -29.53515625 25.59375 C-30.14582922 10.02035816 -30.14582922 10.02035816 -27.11328125 3.50390625 C-19.85231627 -4.17266952 -9.37082852 -2.97507423 0 0 Z " fill="#B77A56" transform="translate(643.79296875,43.88671875)"/>
<path d="M0 0 C2.31354403 1.16700893 3.69461484 2.00670125 5.20703125 4.11328125 C5.68992418 7.45329069 5.38538975 10.75069885 5.20703125 14.11328125 C5.24828125 15.22703125 5.28953125 16.34078125 5.33203125 17.48828125 C3.90934453 20.80788359 2.84412669 21.03691941 -0.41796875 22.42578125 C-4.54737315 23.85564685 -8.44689798 24.73536205 -12.79296875 25.11328125 C-11.33253481 26.86303592 -11.33253481 26.86303592 -8.79296875 28.11328125 C-4.61319382 28.13591541 -0.74829651 27.43172384 3.20703125 26.11328125 C1.53598273 32.10120513 -0.45631313 35.75802099 -5.91796875 38.92578125 C-11.35223748 40.97534381 -17.26800553 41.10131034 -22.66796875 38.98828125 C-27.28421564 34.91512223 -28.9951272 31.68967119 -29.53515625 25.59375 C-30.14582922 10.02035816 -30.14582922 10.02035816 -27.11328125 3.50390625 C-19.85231627 -4.17266952 -9.37082852 -2.97507423 0 0 Z " fill="#B77A56" transform="translate(294.79296875,43.88671875)"/>
<path d="M0 0 C2.31354403 1.16700893 3.69461484 2.00670125 5.20703125 4.11328125 C5.68992418 7.45329069 5.38538975 10.75069885 5.20703125 14.11328125 C5.24828125 15.22703125 5.28953125 16.34078125 5.33203125 17.48828125 C3.90934453 20.80788359 2.84412669 21.03691941 -0.41796875 22.42578125 C-4.54737315 23.85564685 -8.44689798 24.73536205 -12.79296875 25.11328125 C-11.33253481 26.86303592 -11.33253481 26.86303592 -8.79296875 28.11328125 C-4.61319382 28.13591541 -0.74829651 27.43172384 3.20703125 26.11328125 C1.53598273 32.10120513 -0.45631313 35.75802099 -5.91796875 38.92578125 C-11.35223748 40.97534381 -17.26800553 41.10131034 -22.66796875 38.98828125 C-27.28421564 34.91512223 -28.9951272 31.68967119 -29.53515625 25.59375 C-30.14582922 10.02035816 -30.14582922 10.02035816 -27.11328125 3.50390625 C-19.85231627 -4.17266952 -9.37082852 -2.97507423 0 0 Z " fill="#B77A56" transform="translate(128.79296875,43.88671875)"/>
<path d="M0 0 C0.12179121 6.90150206 -0.0704235 13.73984332 -0.5 20.625 C-0.63098472 22.94700185 -0.75570183 25.26919043 -0.87548828 27.59179688 C-0.96012524 29.2287753 -1.04982863 30.86549798 -1.14404297 32.50195312 C-1.2743694 34.9595373 -1.36121189 37.41521029 -1.4375 39.875 C-1.50710938 41.00736084 -1.50710938 41.00736084 -1.578125 42.16259766 C-1.69280629 44.57693855 -1.69280629 44.57693855 -1 48 C1.86869224 50.56752337 1.86869224 50.56752337 5 52 C3.63629701 54.99220268 2.05091917 57.29026529 -0.125 59.75 C-0.93324219 60.67039062 -0.93324219 60.67039062 -1.7578125 61.609375 C-2.37269531 62.29773438 -2.37269531 62.29773438 -3 63 C-8.20670288 62.68444225 -11.57730756 59.69871603 -15 56 C-15.97639431 53.07081707 -16.12136181 51.20974262 -16.11352539 48.16137695 C-16.11344986 47.1805867 -16.11337433 46.19979645 -16.11329651 45.18928528 C-16.10813522 44.13295395 -16.10297394 43.07662262 -16.09765625 41.98828125 C-16.0962413 40.90491989 -16.09482635 39.82155853 -16.09336853 38.70536804 C-16.08776559 35.24105075 -16.07521258 31.7767978 -16.0625 28.3125 C-16.05748538 25.96549572 -16.05292241 23.61849044 -16.04882812 21.27148438 C-16.03779521 15.51430092 -16.0210542 9.75715506 -16 4 C-13.52122809 3.33183525 -11.04201406 2.66539997 -8.5625 2 C-7.50192383 1.71382812 -7.50192383 1.71382812 -6.41992188 1.421875 C-1.11328125 0 -1.11328125 0 0 0 Z " fill="#B67A56" transform="translate(720,22)"/>
<path d="M0 0 C0.12179121 6.90150206 -0.0704235 13.73984332 -0.5 20.625 C-0.63098472 22.94700185 -0.75570183 25.26919043 -0.87548828 27.59179688 C-0.96012524 29.2287753 -1.04982863 30.86549798 -1.14404297 32.50195312 C-1.2743694 34.9595373 -1.36121189 37.41521029 -1.4375 39.875 C-1.50710938 41.00736084 -1.50710938 41.00736084 -1.578125 42.16259766 C-1.69280629 44.57693855 -1.69280629 44.57693855 -1 48 C1.86869224 50.56752337 1.86869224 50.56752337 5 52 C3.63629701 54.99220268 2.05091917 57.29026529 -0.125 59.75 C-0.93324219 60.67039062 -0.93324219 60.67039062 -1.7578125 61.609375 C-2.37269531 62.29773438 -2.37269531 62.29773438 -3 63 C-8.20670288 62.68444225 -11.57730756 59.69871603 -15 56 C-15.97639431 53.07081707 -16.12136181 51.20974262 -16.11352539 48.16137695 C-16.11344986 47.1805867 -16.11337433 46.19979645 -16.11329651 45.18928528 C-16.10813522 44.13295395 -16.10297394 43.07662262 -16.09765625 41.98828125 C-16.0962413 40.90491989 -16.09482635 39.82155853 -16.09336853 38.70536804 C-16.08776559 35.24105075 -16.07521258 31.7767978 -16.0625 28.3125 C-16.05748538 25.96549572 -16.05292241 23.61849044 -16.04882812 21.27148438 C-16.03779521 15.51430092 -16.0210542 9.75715506 -16 4 C-13.52122809 3.33183525 -11.04201406 2.66539997 -8.5625 2 C-7.50192383 1.71382812 -7.50192383 1.71382812 -6.41992188 1.421875 C-1.11328125 0 -1.11328125 0 0 0 Z " fill="#B67A56" transform="translate(479,22)"/>
<path d="M0 0 C0 2.31 0 4.62 0 7 C3.3 7 6.6 7 10 7 C9.67 9.97 9.34 12.94 9 16 C6.03 16.33 3.06 16.66 0 17 C0.06018017 19.25073828 0.14901206 21.50072325 0.25 23.75 C0.29640625 25.00296875 0.3428125 26.2559375 0.390625 27.546875 C1.07789358 31.44139695 1.92362714 32.61754583 5 35 C5.66 35.33 6.32 35.66 7 36 C6.36610765 39.49844386 4.94822306 41.84086876 2.9375 44.75 C2.38964844 45.54921875 1.84179688 46.3484375 1.27734375 47.171875 C0.85582031 47.77515625 0.43429687 48.3784375 0 49 C-6.08053114 47.66228315 -10.59949755 45.67374193 -14.15625 40.23046875 C-16.65731805 33.61884904 -15.27577494 24.85729032 -14 18 C-15.32 18 -16.64 18 -18 18 C-16.125 13.25 -16.125 13.25 -15 11 C-14.77532169 9.46331135 -14.59203195 7.92031946 -14.4375 6.375 C-14.35371094 5.55773438 -14.26992188 4.74046875 -14.18359375 3.8984375 C-14.12300781 3.27195313 -14.06242188 2.64546875 -14 2 C-11.85430749 1.66576139 -9.70844207 1.33263257 -7.5625 1 C-6.36753906 0.814375 -5.17257812 0.62875 -3.94140625 0.4375 C-1 0 -1 0 0 0 Z " fill="#B67B56" transform="translate(944,36)"/>
<path d="M0 0 C0 2.31 0 4.62 0 7 C3.3 7 6.6 7 10 7 C9.67 9.97 9.34 12.94 9 16 C6.03 16.33 3.06 16.66 0 17 C0.06018017 19.25073828 0.14901206 21.50072325 0.25 23.75 C0.29640625 25.00296875 0.3428125 26.2559375 0.390625 27.546875 C1.07789358 31.44139695 1.92362714 32.61754583 5 35 C5.66 35.33 6.32 35.66 7 36 C6.36610765 39.49844386 4.94822306 41.84086876 2.9375 44.75 C2.38964844 45.54921875 1.84179688 46.3484375 1.27734375 47.171875 C0.85582031 47.77515625 0.43429687 48.3784375 0 49 C-6.08053114 47.66228315 -10.59949755 45.67374193 -14.15625 40.23046875 C-16.65731805 33.61884904 -15.27577494 24.85729032 -14 18 C-15.32 18 -16.64 18 -18 18 C-16.125 13.25 -16.125 13.25 -15 11 C-14.77532169 9.46331135 -14.59203195 7.92031946 -14.4375 6.375 C-14.35371094 5.55773438 -14.26992188 4.74046875 -14.18359375 3.8984375 C-14.12300781 3.27195313 -14.06242188 2.64546875 -14 2 C-11.85430749 1.66576139 -9.70844207 1.33263257 -7.5625 1 C-6.36753906 0.814375 -5.17257812 0.62875 -3.94140625 0.4375 C-1 0 -1 0 0 0 Z " fill="#B67B56" transform="translate(865,36)"/>
<path d="M0 0 C0 2.31 0 4.62 0 7 C3.3 7 6.6 7 10 7 C9.67 9.97 9.34 12.94 9 16 C6.03 16.33 3.06 16.66 0 17 C0.06018017 19.25073828 0.14901206 21.50072325 0.25 23.75 C0.29640625 25.00296875 0.3428125 26.2559375 0.390625 27.546875 C1.07789358 31.44139695 1.92362714 32.61754583 5 35 C5.66 35.33 6.32 35.66 7 36 C6.36610765 39.49844386 4.94822306 41.84086876 2.9375 44.75 C2.38964844 45.54921875 1.84179688 46.3484375 1.27734375 47.171875 C0.85582031 47.77515625 0.43429687 48.3784375 0 49 C-6.08053114 47.66228315 -10.59949755 45.67374193 -14.15625 40.23046875 C-16.65731805 33.61884904 -15.27577494 24.85729032 -14 18 C-15.32 18 -16.64 18 -18 18 C-16.125 13.25 -16.125 13.25 -15 11 C-14.77532169 9.46331135 -14.59203195 7.92031946 -14.4375 6.375 C-14.35371094 5.55773438 -14.26992188 4.74046875 -14.18359375 3.8984375 C-14.12300781 3.27195313 -14.06242187 2.64546875 -14 2 C-11.85430749 1.66576139 -9.70844207 1.33263257 -7.5625 1 C-6.36753906 0.814375 -5.17257812 0.62875 -3.94140625 0.4375 C-1 0 -1 0 0 0 Z " fill="#B67B56" transform="translate(369,36)"/>
<path d="M0 0 C0.495 19.8 0.495 19.8 1 40 C-5 42 -5 42 -15 43 C-15 33.1 -15 23.2 -15 13 C-15.99 13.495 -15.99 13.495 -17 14 C-18.99960012 14.039992 -21.00047242 14.04346799 -23 14 C-22.4921875 10.67578125 -22.4921875 10.67578125 -21 7 C-18.19574845 5.65334294 -16.08502119 4.88166426 -13.125 4.1875 C-9.14360794 3.13695379 -3.83778813 0 0 0 Z " fill="#B77A56" transform="translate(404,42)"/>
<path d="M0 0 C0.495 19.8 0.495 19.8 1 40 C-5 42 -5 42 -15 43 C-15 33.1 -15 23.2 -15 13 C-15.99 13.495 -15.99 13.495 -17 14 C-18.99960012 14.039992 -21.00047242 14.04346799 -23 14 C-22.4921875 10.67578125 -22.4921875 10.67578125 -21 7 C-18.19574845 5.65334294 -16.08502119 4.88166426 -13.125 4.1875 C-9.14360794 3.13695379 -3.83778813 0 0 0 Z " fill="#B77A56" transform="translate(209,42)"/>
<path d="M0 0 C4.41889613 1.35021826 6.34345343 3.26115668 9 7 C4.50839345 17.07818187 -6.60755567 23.98119449 -16.5 28 C-20 29 -20 29 -23 28 C-22.3709375 27.24976562 -21.741875 26.49953125 -21.09375 25.7265625 C-16.24897868 19.9371892 -11.46045764 14.11228953 -6.76171875 8.203125 C-4.54749735 5.43412086 -2.2836736 2.7118624 0 0 Z " fill="#26AF4C" transform="translate(584,38)"/>
<path d="M0 0 C4.41889613 1.35021826 6.34345343 3.26115668 9 7 C4.50839345 17.07818187 -6.60755567 23.98119449 -16.5 28 C-20 29 -20 29 -23 28 C-22.3709375 27.24976562 -21.741875 26.49953125 -21.09375 25.7265625 C-16.24897868 19.9371892 -11.46045764 14.11228953 -6.76171875 8.203125 C-4.54749735 5.43412086 -2.2836736 2.7118624 0 0 Z " fill="#26AF4C" transform="translate(69,38)"/>
<path d="M0 0 C2.69990662 1.79993774 4.5418865 3.083773 6 6 C6.4375 8.8125 6.4375 8.8125 6 12 C3.11440429 15.16041435 1.15546616 16.76419058 -3.0625 17.625 C-7.16102524 16.75297335 -8.58610696 15.407849 -11 12 C-11.75517074 8.92450628 -11.51878636 7.26835406 -11 4 C-7.72794548 0.1505241 -4.96702569 -0.82783761 0 0 Z " fill="#B57B56" transform="translate(398,21)"/>
<path d="M0 0 C2.69990662 1.79993774 4.5418865 3.083773 6 6 C6.4375 8.8125 6.4375 8.8125 6 12 C3.11440429 15.16041435 1.15546616 16.76419058 -3.0625 17.625 C-7.16102524 16.75297335 -8.58610696 15.407849 -11 12 C-11.75517074 8.92450628 -11.51878636 7.26835406 -11 4 C-7.72794548 0.1505241 -4.96702569 -0.82783761 0 0 Z " fill="#B57B56" transform="translate(203,21)"/>
<path d="M0 0 C4.95 0.99 4.95 0.99 10 2 C8.96234062 6.15063751 7.2411581 9.18452121 5 12.75 C4.63132813 13.35199219 4.26265625 13.95398438 3.8828125 14.57421875 C2.95364998 16.06969566 1.98051585 17.53767895 1 19 C0.67 19 0.34 19 0 19 C0 12.73 0 6.46 0 0 Z " fill="#31AD4D" transform="translate(232,52)"/>
<path d="M0 0 C8.67308272 2.44312189 8.67308272 2.44312189 10.02734375 4.75 C9.984963 8.23733022 8.20927243 10.02385821 6.125 12.75 C5.38507812 13.73484375 4.64515625 14.7196875 3.8828125 15.734375 C3.26148438 16.48203125 2.64015625 17.2296875 2 18 C1.67 18 1.34 18 1 18 C0.67 12.06 0.34 6.12 0 0 Z " fill="#29AE4D" transform="translate(893,54)"/>
<path d="M0 0 C8.67308272 2.44312189 8.67308272 2.44312189 10.02734375 4.75 C9.984963 8.23733022 8.20927243 10.02385821 6.125 12.75 C5.38507812 13.73484375 4.64515625 14.7196875 3.8828125 15.734375 C3.26148438 16.48203125 2.64015625 17.2296875 2 18 C1.67 18 1.34 18 1 18 C0.67 12.06 0.34 6.12 0 0 Z " fill="#29AE4D" transform="translate(668,54)"/>
<path d="M0 0 C8.67308272 2.44312189 8.67308272 2.44312189 10.02734375 4.75 C9.984963 8.23733022 8.20927243 10.02385821 6.125 12.75 C5.38507813 13.73484375 4.64515625 14.7196875 3.8828125 15.734375 C3.26148438 16.48203125 2.64015625 17.2296875 2 18 C1.67 18 1.34 18 1 18 C0.67 12.06 0.34 6.12 0 0 Z " fill="#29AE4D" transform="translate(427,54)"/>
<path d="M0 0 C5 1 5 1 6.8125 2.125 C8.63883169 5.00868162 8.18806842 7.67745793 8 11 C5.03 11 2.06 11 -1 11 C-0.67 7.37 -0.34 3.74 0 0 Z " fill="#27AD4D" transform="translate(973,52)"/>
<path d="M0 0 C5 1 5 1 6.8125 2.125 C8.63883169 5.00868162 8.18806842 7.67745793 8 11 C5.03 11 2.06 11 -1 11 C-0.67 7.37 -0.34 3.74 0 0 Z " fill="#27AD4D" transform="translate(629,52)"/>
<path d="M0 0 C5 1 5 1 6.8125 2.125 C8.63883169 5.00868162 8.18806842 7.67745793 8 11 C5.03 11 2.06 11 -1 11 C-0.67 7.37 -0.34 3.74 0 0 Z " fill="#27AD4D" transform="translate(280,52)"/>
<path d="M0 0 C5 1 5 1 6.8125 2.125 C8.63883169 5.00868162 8.18806842 7.67745793 8 11 C5.03 11 2.06 11 -1 11 C-0.67 7.37 -0.34 3.74 0 0 Z " fill="#27AD4D" transform="translate(114,52)"/>
</svg>
