<?xml version="1.0" encoding="UTF-8"?>
<svg version="1.1" xmlns="http://www.w3.org/2000/svg" width="1040" height="135">
<path d="M0 0 C343.2 0 686.4 0 1040 0 C1040 44.55 1040 89.1 1040 135 C696.8 135 353.6 135 0 135 C0 90.45 0 45.9 0 0 Z " fill="#FDFDFD" transform="translate(0,0)"/>
<path d="M0 0 C4.95902775 4.12951765 8.27195725 7.52796062 9.1484375 14.1015625 C8.84366531 20.84464715 5.05359581 26.31146902 0.3359375 30.9140625 C-9.63053069 39.02718367 -24.33707105 46.20033368 -37.3515625 45.3515625 C-37.3515625 46.0115625 -37.3515625 46.6715625 -37.3515625 47.3515625 C-36.64 47.59261719 -35.9284375 47.83367187 -35.1953125 48.08203125 C-31.92803675 49.54063649 -29.59491353 51.37151494 -26.8515625 53.6640625 C-25.93375 54.42332031 -25.0159375 55.18257812 -24.0703125 55.96484375 C-23.173125 56.75246094 -22.2759375 57.54007813 -21.3515625 58.3515625 C-20.3925 59.17011719 -19.4334375 59.98867187 -18.4453125 60.83203125 C-16.3515625 63.3515625 -16.3515625 63.3515625 -16.37890625 65.73828125 C-16.69988281 66.60066406 -17.02085937 67.46304688 -17.3515625 68.3515625 C-17.74472656 69.45113281 -18.13789062 70.55070312 -18.54296875 71.68359375 C-18.99542969 72.83214844 -19.44789063 73.98070313 -19.9140625 75.1640625 C-20.36910156 76.32550781 -20.82414063 77.48695312 -21.29296875 78.68359375 C-21.81697266 80.00423828 -21.81697266 80.00423828 -22.3515625 81.3515625 C-26.46765156 79.6567023 -29.55170452 76.75355241 -32.8515625 73.8515625 C-34.09312346 72.77271604 -35.33532343 71.69460458 -36.578125 70.6171875 C-37.20364258 70.07384766 -37.82916016 69.53050781 -38.47363281 68.97070312 C-41.36264946 66.4798089 -44.29123391 64.03756423 -47.2265625 61.6015625 C-48.21398437 60.78171875 -49.20140625 59.961875 -50.21875 59.1171875 C-50.92257812 58.53453125 -51.62640625 57.951875 -52.3515625 57.3515625 C-54.97054325 59.91896595 -57.4214221 62.55195076 -59.7890625 65.3515625 C-65.27429364 71.58213291 -65.27429364 71.58213291 -68.3515625 73.3515625 C-72.88895144 73.51655846 -75.53155459 72.57493385 -78.8515625 69.6015625 C-80.74365979 67.47168828 -81.32796784 66.8116583 -81.4765625 63.9140625 C-80.00065269 60.55226794 -78.25958026 57.49055945 -76.3515625 54.3515625 C-73.09312995 55.36012496 -70.18635035 56.43902776 -67.1640625 58.0390625 C-64.36469651 59.73802086 -64.36469651 59.73802086 -61.3515625 58.3515625 C-59.98686765 56.93370164 -59.98686765 56.93370164 -58.7421875 55.125 C-57.99183228 54.08811035 -57.99183228 54.08811035 -57.22631836 53.03027344 C-56.69014893 52.27004883 -56.15397949 51.50982422 -55.6015625 50.7265625 C-55.04025635 49.94055664 -54.4789502 49.15455078 -53.90063477 48.34472656 C-47.28251853 38.98548083 -41.08041526 29.35047508 -34.87841797 19.71289062 C-33.06380287 16.90653353 -31.21708965 14.1242662 -29.3515625 11.3515625 C-43.08181092 10.04253458 -55.31079429 15.23557341 -66.875 22.09375 C-67.69226563 22.50882813 -68.50953125 22.92390625 -69.3515625 23.3515625 C-70.0115625 23.0215625 -70.6715625 22.6915625 -71.3515625 22.3515625 C-64.31721948 8.16641383 -55.01906954 2.64148307 -40.3515625 -2.6484375 C-26.99915852 -6.86165157 -12.02069521 -8.42646741 0 0 Z " fill="#050405" transform="translate(599.3515625,37.6484375)"/>
<path d="M0 0 C4.95902775 4.12951765 8.27195725 7.52796062 9.1484375 14.1015625 C8.84366531 20.84464715 5.05359581 26.31146902 0.3359375 30.9140625 C-9.63053069 39.02718367 -24.33707105 46.20033368 -37.3515625 45.3515625 C-37.3515625 46.0115625 -37.3515625 46.6715625 -37.3515625 47.3515625 C-36.64 47.59261719 -35.9284375 47.83367187 -35.1953125 48.08203125 C-31.92803675 49.54063649 -29.59491353 51.37151494 -26.8515625 53.6640625 C-25.93375 54.42332031 -25.0159375 55.18257812 -24.0703125 55.96484375 C-23.173125 56.75246094 -22.2759375 57.54007813 -21.3515625 58.3515625 C-20.3925 59.17011719 -19.4334375 59.98867187 -18.4453125 60.83203125 C-16.3515625 63.3515625 -16.3515625 63.3515625 -16.37890625 65.73828125 C-16.69988281 66.60066406 -17.02085938 67.46304688 -17.3515625 68.3515625 C-17.74472656 69.45113281 -18.13789062 70.55070312 -18.54296875 71.68359375 C-18.99542969 72.83214844 -19.44789062 73.98070313 -19.9140625 75.1640625 C-20.36910156 76.32550781 -20.82414062 77.48695312 -21.29296875 78.68359375 C-21.81697266 80.00423828 -21.81697266 80.00423828 -22.3515625 81.3515625 C-26.46765156 79.6567023 -29.55170452 76.75355241 -32.8515625 73.8515625 C-34.09312346 72.77271604 -35.33532343 71.69460458 -36.578125 70.6171875 C-37.20364258 70.07384766 -37.82916016 69.53050781 -38.47363281 68.97070312 C-41.36264946 66.4798089 -44.29123391 64.03756423 -47.2265625 61.6015625 C-48.21398438 60.78171875 -49.20140625 59.961875 -50.21875 59.1171875 C-50.92257813 58.53453125 -51.62640625 57.951875 -52.3515625 57.3515625 C-54.97054325 59.91896595 -57.4214221 62.55195076 -59.7890625 65.3515625 C-65.27429364 71.58213291 -65.27429364 71.58213291 -68.3515625 73.3515625 C-72.88895144 73.51655846 -75.53155459 72.57493385 -78.8515625 69.6015625 C-80.74365979 67.47168828 -81.32796784 66.8116583 -81.4765625 63.9140625 C-80.00065269 60.55226794 -78.25958026 57.49055945 -76.3515625 54.3515625 C-73.09312995 55.36012496 -70.18635035 56.43902776 -67.1640625 58.0390625 C-64.36469651 59.73802086 -64.36469651 59.73802086 -61.3515625 58.3515625 C-59.98686765 56.93370164 -59.98686765 56.93370164 -58.7421875 55.125 C-57.99183228 54.08811035 -57.99183228 54.08811035 -57.22631836 53.03027344 C-56.69014893 52.27004883 -56.15397949 51.50982422 -55.6015625 50.7265625 C-55.04025635 49.94055664 -54.4789502 49.15455078 -53.90063477 48.34472656 C-47.28251853 38.98548083 -41.08041526 29.35047508 -34.87841797 19.71289062 C-33.06380287 16.90653353 -31.21708965 14.1242662 -29.3515625 11.3515625 C-43.08181092 10.04253458 -55.31079429 15.23557341 -66.875 22.09375 C-67.69226563 22.50882813 -68.50953125 22.92390625 -69.3515625 23.3515625 C-70.0115625 23.0215625 -70.6715625 22.6915625 -71.3515625 22.3515625 C-64.31721948 8.16641383 -55.01906954 2.64148307 -40.3515625 -2.6484375 C-26.99915852 -6.86165157 -12.02069521 -8.42646741 0 0 Z " fill="#050405" transform="translate(84.3515625,37.6484375)"/>
<path d="M0 0 C3.59582269 2.68248373 5.59331203 5.77993609 7 10 C7.068991 12.06145107 7.08467727 14.12501401 7.0625 16.1875 C7.05347656 17.27417969 7.04445313 18.36085938 7.03515625 19.48046875 C7.02355469 20.31191406 7.01195312 21.14335938 7 22 C3.41809375 22 2.8170741 21.26915638 0.0625 19.125 C-5.28899483 15.38071979 -10.6010421 14.62798572 -17 14 C-16.82564799 16.1072545 -16.6092587 18.21106168 -16.375 20.3125 C-16.25898437 21.48425781 -16.14296875 22.65601563 -16.0234375 23.86328125 C-15.28422162 27.1759831 -15.28422162 27.1759831 -12.453125 28.83203125 C-7.72607809 30.43088535 -3.0437218 31.06319058 1.8984375 31.640625 C5.82743278 32.2118619 7.53628203 32.54440448 10.453125 35.41015625 C12.58178253 38.97404499 13.13369639 40.78856373 13 45 C7.79589229 59.85688815 -2.89239164 68.45818514 -16 76 C-17.04929687 76.62519531 -18.09859375 77.25039062 -19.1796875 77.89453125 C-25.8040231 81.56802644 -31.43470167 83.55974594 -39 82 C-47.91666584 78.90409652 -54.34762201 73.51497948 -61 67 C-62.07701172 66.10087891 -62.07701172 66.10087891 -63.17578125 65.18359375 C-67.79043466 61.19779091 -67.79043466 61.19779091 -68.42578125 57.56640625 C-68.43625103 55.32936347 -68.31610204 53.2127143 -68 51 C-62.75900627 51.6015606 -58.50338773 53.28734328 -53.75 55.4375 C-52.58223022 55.95461548 -52.58223022 55.95461548 -51.39086914 56.48217773 C-47.17866609 58.39243654 -43.12683667 60.4483869 -39.13671875 62.7890625 C-37.95480957 63.48044312 -37.95480957 63.48044312 -36.74902344 64.18579102 C-35.24561996 65.08119577 -33.75437373 65.99744844 -32.27832031 66.93725586 C-27.62927794 69.72072097 -24.39927983 70.50794488 -19.01928711 69.55737305 C-16.33878761 68.81748907 -14.30943004 67.75839218 -12.0625 66.125 C-11.33160156 65.61195312 -10.60070312 65.09890625 -9.84765625 64.5703125 C-7.56689822 62.63190927 -6.09681914 61.0127282 -5.8046875 57.95703125 C-5.82789063 57.24933594 -5.85109375 56.54164062 -5.875 55.8125 C-5.91625 54.554375 -5.9575 53.29625 -6 52 C-7.0621875 51.72027344 -8.124375 51.44054687 -9.21875 51.15234375 C-18.02836932 48.70268241 -26.25466234 46.4008948 -31.16796875 38.00390625 C-33.4886048 32.41476871 -32.04064977 27.50740304 -29.9375 22.125 C-25.9774506 13.30134064 -21.40750775 6.01216808 -13 1 C-8.62369344 -0.45876885 -4.55479204 -0.88408231 0 0 Z " fill="#050405" transform="translate(826,32)"/>
<path d="M0 0 C0 19.8 0 39.6 0 60 C-12 63 -12 63 -16 63 C-16.33 58.05 -16.66 53.1 -17 48 C-17.66 48 -18.32 48 -19 48 C-20.53851766 49.71951974 -22.00731759 51.50187497 -23.4375 53.3125 C-28.34896111 59.50239744 -28.34896111 59.50239744 -31 62 C-37.65103807 60.52199154 -37.65103807 60.52199154 -39.20336914 58.19995117 C-41.82411384 50.96258356 -41.14319309 40.31194675 -39.1953125 32.96484375 C-38.00585428 30.63924785 -36.76218883 28.92611338 -35 27 C-34.32195312 26.22914062 -33.64390625 25.45828125 -32.9453125 24.6640625 C-27.56693307 19.21124183 -27.56693307 19.21124183 -23.7109375 18.69140625 C-20.92613169 19.0103931 -18.50562254 19.74718873 -16 21 C-16 14.73 -16 8.46 -16 2 C-7 0 -7 0 0 0 Z " fill="#070304" transform="translate(255,34)"/>
<path d="M0 0 C1.44443983 0.36970781 2.88113701 0.77001913 4.3125 1.1875 C5.3746875 1.38214844 6.436875 1.57679687 7.53125 1.77734375 C18.59997402 3.88389145 18.59997402 3.88389145 22.3125 9.1875 C23.41161549 12.48484646 23.4264456 14.91708745 23.41015625 18.38671875 C23.40693359 19.59521484 23.40371094 20.80371094 23.40039062 22.04882812 C23.38782227 23.9427832 23.38782227 23.9427832 23.375 25.875 C23.37048828 27.14923828 23.36597656 28.42347656 23.36132812 29.73632812 C23.34952873 32.88676564 23.33306597 36.03710949 23.3125 39.1875 C21.56433142 39.69386607 19.81387737 40.19234619 18.0625 40.6875 C17.08796875 40.9659375 16.1134375 41.244375 15.109375 41.53125 C12.3125 42.1875 12.3125 42.1875 8.3125 42.1875 C7.9825 37.5675 7.6525 32.9475 7.3125 28.1875 C6.37148438 29.28191406 5.43046875 30.37632813 4.4609375 31.50390625 C3.20412809 32.92016163 1.94625997 34.33547798 0.6875 35.75 C0.07003906 36.47380859 -0.54742188 37.19761719 -1.18359375 37.94335938 C-2.93647617 39.88998143 -4.5826226 41.62686904 -6.6875 43.1875 C-10.78765547 43.3000341 -12.27920412 42.45969725 -15.6875 40.1875 C-17.16833315 35.63176037 -16.981125 30.62803952 -17.0625 25.875 C-17.09988281 25.05837891 -17.13726563 24.24175781 -17.17578125 23.40039062 C-17.26749236 17.00608851 -15.56688174 13.20816808 -11.6875 8.1875 C-11.04167969 7.34058594 -10.39585937 6.49367188 -9.73046875 5.62109375 C-4.72889396 0.24045224 -4.72889396 0.24045224 0 0 Z " fill="#060508" transform="translate(892.6875,53.8125)"/>
<path d="M0 0 C1.44443983 0.36970781 2.88113701 0.77001913 4.3125 1.1875 C5.3746875 1.38214844 6.436875 1.57679687 7.53125 1.77734375 C18.59997402 3.88389145 18.59997402 3.88389145 22.3125 9.1875 C23.41161549 12.48484646 23.4264456 14.91708745 23.41015625 18.38671875 C23.40693359 19.59521484 23.40371094 20.80371094 23.40039062 22.04882812 C23.38782227 23.9427832 23.38782227 23.9427832 23.375 25.875 C23.37048828 27.14923828 23.36597656 28.42347656 23.36132812 29.73632812 C23.34952873 32.88676564 23.33306597 36.03710949 23.3125 39.1875 C21.56433142 39.69386607 19.81387737 40.19234619 18.0625 40.6875 C17.08796875 40.9659375 16.1134375 41.244375 15.109375 41.53125 C12.3125 42.1875 12.3125 42.1875 8.3125 42.1875 C7.9825 37.5675 7.6525 32.9475 7.3125 28.1875 C6.37148438 29.28191406 5.43046875 30.37632813 4.4609375 31.50390625 C3.20412809 32.92016163 1.94625997 34.33547798 0.6875 35.75 C0.07003906 36.47380859 -0.54742188 37.19761719 -1.18359375 37.94335938 C-2.93647617 39.88998143 -4.5826226 41.62686904 -6.6875 43.1875 C-10.78765547 43.3000341 -12.27920412 42.45969725 -15.6875 40.1875 C-17.16833315 35.63176037 -16.981125 30.62803952 -17.0625 25.875 C-17.09988281 25.05837891 -17.13726563 24.24175781 -17.17578125 23.40039062 C-17.26749236 17.00608851 -15.56688174 13.20816808 -11.6875 8.1875 C-11.04167969 7.34058594 -10.39585937 6.49367188 -9.73046875 5.62109375 C-4.72889396 0.24045224 -4.72889396 0.24045224 0 0 Z " fill="#060508" transform="translate(667.6875,53.8125)"/>
<path d="M0 0 C1.44443983 0.36970781 2.88113701 0.77001913 4.3125 1.1875 C5.3746875 1.38214844 6.436875 1.57679687 7.53125 1.77734375 C18.59997402 3.88389145 18.59997402 3.88389145 22.3125 9.1875 C23.41161549 12.48484646 23.4264456 14.91708745 23.41015625 18.38671875 C23.40693359 19.59521484 23.40371094 20.80371094 23.40039062 22.04882812 C23.38782227 23.9427832 23.38782227 23.9427832 23.375 25.875 C23.37048828 27.14923828 23.36597656 28.42347656 23.36132812 29.73632812 C23.34952873 32.88676564 23.33306597 36.03710949 23.3125 39.1875 C21.56433142 39.69386607 19.81387737 40.19234619 18.0625 40.6875 C17.08796875 40.9659375 16.1134375 41.244375 15.109375 41.53125 C12.3125 42.1875 12.3125 42.1875 8.3125 42.1875 C7.9825 37.5675 7.6525 32.9475 7.3125 28.1875 C6.37148438 29.28191406 5.43046875 30.37632813 4.4609375 31.50390625 C3.20412809 32.92016163 1.94625997 34.33547798 0.6875 35.75 C0.07003906 36.47380859 -0.54742187 37.19761719 -1.18359375 37.94335938 C-2.93647617 39.88998143 -4.5826226 41.62686904 -6.6875 43.1875 C-10.78765547 43.3000341 -12.27920412 42.45969725 -15.6875 40.1875 C-17.16833315 35.63176037 -16.981125 30.62803952 -17.0625 25.875 C-17.09988281 25.05837891 -17.13726562 24.24175781 -17.17578125 23.40039062 C-17.26749236 17.00608851 -15.56688174 13.20816808 -11.6875 8.1875 C-11.04167969 7.34058594 -10.39585937 6.49367188 -9.73046875 5.62109375 C-4.72889396 0.24045224 -4.72889396 0.24045224 0 0 Z " fill="#060508" transform="translate(426.6875,53.8125)"/>
<path d="M0 0 C1.72766602 0.11214844 1.72766602 0.11214844 3.49023438 0.2265625 C6.30807023 0.41363874 9.12323061 0.64029975 11.9375 0.875 C11.2775 4.835 10.6175 8.795 9.9375 12.875 C3.0075 11.885 -3.9225 10.895 -11.0625 9.875 C-5.54342191 15.39407809 -1.3803617 15.11554124 5.95703125 15.12890625 C9.88754675 15.26797477 11.77111047 15.74561025 14.90625 18.18359375 C17.12549559 21.12409415 17.68223631 23.06338441 17.41015625 26.75390625 C16.50806391 30.80213882 14.81208475 33.88781631 11.9375 36.875 C3.54436104 42.0572406 -5.39107602 42.6888794 -15.0625 41.875 C-18.29813784 40.88308425 -21.1543656 39.5983389 -24.0625 37.875 C-23.5675 34.905 -23.5675 34.905 -23.0625 31.875 C-19.74303929 30.7685131 -18.68534776 31.01739292 -15.375 31.8125 C-9.09675053 33.16699114 -3.36968932 33.45179733 2.9375 31.875 C2.9375 31.215 2.9375 30.555 2.9375 29.875 C1.71933594 29.83761719 0.50117187 29.80023438 -0.75390625 29.76171875 C-2.3776329 29.69601883 -4.00132949 29.62957291 -5.625 29.5625 C-6.82479492 29.52866211 -6.82479492 29.52866211 -8.04882812 29.49414062 C-14.08426295 29.22316192 -19.0872147 28.25522824 -23.9375 24.375 C-26.68554847 20.71093537 -26.62864902 16.24600343 -26.0625 11.875 C-20.88164583 0.61227355 -11.2088211 -0.98311645 0 0 Z " fill="#060607" transform="translate(1021.0625,54.125)"/>
<path d="M0 0 C1.72766602 0.11214844 1.72766602 0.11214844 3.49023438 0.2265625 C6.30807023 0.41363874 9.12323061 0.64029975 11.9375 0.875 C11.2775 4.835 10.6175 8.795 9.9375 12.875 C3.0075 11.885 -3.9225 10.895 -11.0625 9.875 C-5.54342191 15.39407809 -1.3803617 15.11554124 5.95703125 15.12890625 C9.88754675 15.26797477 11.77111047 15.74561025 14.90625 18.18359375 C17.12549559 21.12409415 17.68223631 23.06338441 17.41015625 26.75390625 C16.50806391 30.80213882 14.81208475 33.88781631 11.9375 36.875 C3.54436104 42.0572406 -5.39107602 42.6888794 -15.0625 41.875 C-18.29813784 40.88308425 -21.1543656 39.5983389 -24.0625 37.875 C-23.5675 34.905 -23.5675 34.905 -23.0625 31.875 C-19.74303929 30.7685131 -18.68534776 31.01739292 -15.375 31.8125 C-9.09675053 33.16699114 -3.36968932 33.45179733 2.9375 31.875 C2.9375 31.215 2.9375 30.555 2.9375 29.875 C1.71933594 29.83761719 0.50117188 29.80023438 -0.75390625 29.76171875 C-2.3776329 29.69601883 -4.00132949 29.62957291 -5.625 29.5625 C-6.82479492 29.52866211 -6.82479492 29.52866211 -8.04882812 29.49414062 C-14.08426295 29.22316192 -19.0872147 28.25522824 -23.9375 24.375 C-26.68554847 20.71093537 -26.62864902 16.24600343 -26.0625 11.875 C-20.88164583 0.61227355 -11.2088211 -0.98311645 0 0 Z " fill="#060607" transform="translate(162.0625,54.125)"/>
<path d="M0 0 C0.33 1.98 0.66 3.96 1 6 C1.556875 5.55527344 2.11375 5.11054687 2.6875 4.65234375 C9.70534327 -0.55176638 9.70534327 -0.55176638 14.25 -0.1875 C18.45985912 1.14562206 20.25474996 2.5892348 23 6 C25.19960721 10.39921443 24.16919167 16.19598191 24 21 C23.96777344 22.15628906 23.93554688 23.31257813 23.90234375 24.50390625 C23.50979926 29.27525691 23.22631111 32.70679919 19.8515625 36.265625 C17.30868084 38.08305994 14.78342528 39.58275135 12 41 C11.01386719 41.53560547 11.01386719 41.53560547 10.0078125 42.08203125 C8.69592699 42.76935883 7.3519152 43.39519583 6 44 C6.16113281 42.73671875 6.32226562 41.4734375 6.48828125 40.171875 C7.07610258 34.85755404 7.18368914 29.59282631 7.1875 24.25 C7.20586914 22.87134766 7.20586914 22.87134766 7.22460938 21.46484375 C7.23456568 16.87830789 7.20771071 13.15363753 5 9 C2.90686692 10.07023284 2.90686692 10.07023284 1 12 C0.35527702 14.99195597 0.35527702 14.99195597 0.390625 18.41796875 C0.35839844 19.67158203 0.32617188 20.92519531 0.29296875 22.21679688 C0.27169922 24.18229492 0.27169922 24.18229492 0.25 26.1875 C0.22184019 27.52282536 0.19191271 28.8581147 0.16015625 30.19335938 C0.08935735 33.4619088 0.04242752 36.7309592 0 40 C-7.425 40.99 -7.425 40.99 -15 42 C-15 29.79 -15 17.58 -15 5 C-2.5 0 -2.5 0 0 0 Z " fill="#050507" transform="translate(318,54)"/>
<path d="M0 0 C2.59269469 1.34867568 4.92031553 2.92031553 7 5 C7.21360664 8.33603305 7.08108418 11.66034527 7 15 C7.04125 16.11375 7.0825 17.2275 7.125 18.375 C5.70231328 21.69460234 4.63709544 21.92363816 1.375 23.3125 C-2.7544044 24.7423656 -6.65392923 25.6220808 -11 26 C-9.53956606 27.74975467 -9.53956606 27.74975467 -7 29 C-2.82022507 29.02263416 1.04467224 28.31844259 5 27 C3.29798459 32.61665085 -0.31335893 37.28353487 -5.25 40.4375 C-10.61127392 41.53412421 -15.87574592 41.9491348 -20.9375 39.6875 C-24.75411095 36.56481832 -26.69037898 34.73077413 -27.2722168 29.59912109 C-28.4269637 11.16458219 -28.4269637 11.16458219 -25.3671875 4.37890625 C-18.78973695 -2.58873205 -8.79286615 -2.58206755 0 0 Z " fill="#030306" transform="translate(983,55)"/>
<path d="M0 0 C2.59269469 1.34867568 4.92031553 2.92031553 7 5 C7.21360664 8.33603305 7.08108418 11.66034527 7 15 C7.04125 16.11375 7.0825 17.2275 7.125 18.375 C5.70231328 21.69460234 4.63709544 21.92363816 1.375 23.3125 C-2.7544044 24.7423656 -6.65392923 25.6220808 -11 26 C-9.53956606 27.74975467 -9.53956606 27.74975467 -7 29 C-2.82022507 29.02263416 1.04467224 28.31844259 5 27 C3.29798459 32.61665085 -0.31335893 37.28353487 -5.25 40.4375 C-10.61127392 41.53412421 -15.87574592 41.9491348 -20.9375 39.6875 C-24.75411095 36.56481832 -26.69037898 34.73077413 -27.2722168 29.59912109 C-28.4269637 11.16458219 -28.4269637 11.16458219 -25.3671875 4.37890625 C-18.78973695 -2.58873205 -8.79286615 -2.58206755 0 0 Z " fill="#030306" transform="translate(639,55)"/>
<path d="M0 0 C2.59269469 1.34867568 4.92031553 2.92031553 7 5 C7.21360664 8.33603305 7.08108418 11.66034527 7 15 C7.04125 16.11375 7.0825 17.2275 7.125 18.375 C5.70231328 21.69460234 4.63709544 21.92363816 1.375 23.3125 C-2.7544044 24.7423656 -6.65392923 25.6220808 -11 26 C-9.53956606 27.74975467 -9.53956606 27.74975467 -7 29 C-2.82022507 29.02263416 1.04467224 28.31844259 5 27 C3.29798459 32.61665085 -0.31335893 37.28353487 -5.25 40.4375 C-10.61127392 41.53412421 -15.87574592 41.9491348 -20.9375 39.6875 C-24.75411095 36.56481832 -26.69037898 34.73077413 -27.2722168 29.59912109 C-28.4269637 11.16458219 -28.4269637 11.16458219 -25.3671875 4.37890625 C-18.78973695 -2.58873205 -8.79286615 -2.58206755 0 0 Z " fill="#030306" transform="translate(290,55)"/>
<path d="M0 0 C2.59269469 1.34867568 4.92031553 2.92031553 7 5 C7.21360664 8.33603305 7.08108418 11.66034527 7 15 C7.04125 16.11375 7.0825 17.2275 7.125 18.375 C5.70231328 21.69460234 4.63709544 21.92363816 1.375 23.3125 C-2.7544044 24.7423656 -6.65392923 25.6220808 -11 26 C-9.53956606 27.74975467 -9.53956606 27.74975467 -7 29 C-2.82022507 29.02263416 1.04467224 28.31844259 5 27 C3.29798459 32.61665085 -0.31335893 37.28353487 -5.25 40.4375 C-10.61127392 41.53412421 -15.87574592 41.9491348 -20.9375 39.6875 C-24.75411095 36.56481832 -26.69037898 34.73077413 -27.2722168 29.59912109 C-28.4269637 11.16458219 -28.4269637 11.16458219 -25.3671875 4.37890625 C-18.78973695 -2.58873205 -8.79286615 -2.58206755 0 0 Z " fill="#030306" transform="translate(124,55)"/>
<path d="M0 0 C0.09730043 9.14624088 0.06388967 18.24312007 -0.5 27.375 C-0.58489768 28.86456841 -0.6695396 30.35415142 -0.75390625 31.84375 C-0.90283378 34.45147706 -1.0797398 37.05121765 -1.27734375 39.65625 C-1.787849 44.99669572 -1.787849 44.99669572 0.33984375 49.6171875 C2.13822509 50.92646938 2.13822509 50.92646938 5 52 C3.63629701 54.99220268 2.05091917 57.29026529 -0.125 59.75 C-0.93324219 60.67039062 -0.93324219 60.67039062 -1.7578125 61.609375 C-2.37269531 62.29773438 -2.37269531 62.29773438 -3 63 C-7.85806571 62.30599061 -11.38283651 60.88019173 -14.63012695 57.10473633 C-16.73545977 52.33312388 -16.36772345 47.72986183 -16.29296875 42.57421875 C-16.28872391 41.47149124 -16.28447906 40.36876373 -16.28010559 39.23262024 C-16.26333905 35.71732977 -16.22568951 32.20261664 -16.1875 28.6875 C-16.17245059 26.30144058 -16.15876264 23.91537216 -16.14648438 21.52929688 C-16.11344212 15.68600158 -16.06326236 9.84304204 -16 4 C-13.70922959 3.33011414 -11.41748541 2.66396838 -9.125 2 C-8.47402344 1.80921875 -7.82304688 1.6184375 -7.15234375 1.421875 C-2.2265625 0 -2.2265625 0 0 0 Z " fill="#05060A" transform="translate(717,34)"/>
<path d="M0 0 C0.09730043 9.14624088 0.06388967 18.24312007 -0.5 27.375 C-0.58489768 28.86456841 -0.6695396 30.35415142 -0.75390625 31.84375 C-0.90283378 34.45147706 -1.0797398 37.05121765 -1.27734375 39.65625 C-1.787849 44.99669572 -1.787849 44.99669572 0.33984375 49.6171875 C2.13822509 50.92646938 2.13822509 50.92646938 5 52 C3.63629701 54.99220268 2.05091917 57.29026529 -0.125 59.75 C-0.93324219 60.67039062 -0.93324219 60.67039062 -1.7578125 61.609375 C-2.37269531 62.29773438 -2.37269531 62.29773438 -3 63 C-7.85806571 62.30599061 -11.38283651 60.88019173 -14.63012695 57.10473633 C-16.73545977 52.33312388 -16.36772345 47.72986183 -16.29296875 42.57421875 C-16.28872391 41.47149124 -16.28447906 40.36876373 -16.28010559 39.23262024 C-16.26333905 35.71732977 -16.22568951 32.20261664 -16.1875 28.6875 C-16.17245059 26.30144058 -16.15876264 23.91537216 -16.14648438 21.52929688 C-16.11344212 15.68600158 -16.06326236 9.84304204 -16 4 C-13.70922959 3.33011414 -11.41748541 2.66396838 -9.125 2 C-8.47402344 1.80921875 -7.82304687 1.6184375 -7.15234375 1.421875 C-2.2265625 0 -2.2265625 0 0 0 Z " fill="#05060A" transform="translate(476,34)"/>
<path d="M0 0 C0 1.98 0 3.96 0 6 C3.3 6 6.6 6 10 6 C9.67 8.97 9.34 11.94 9 15 C4.545 15.495 4.545 15.495 0 16 C-0.08160748 17.89510699 -0.13946459 19.79124504 -0.1875 21.6875 C-0.22230469 22.74324219 -0.25710938 23.79898438 -0.29296875 24.88671875 C0.03733125 28.39670676 0.91299308 30.19056761 3 33 C5.06700655 34.32793606 5.06700655 34.32793606 7 35 C5.35821735 39.77609498 2.73453298 43.79382904 0 48 C-6.99897391 46.36690609 -10.95756031 43.99147311 -15 38 C-18.05016081 31.89967838 -15.30172262 23.32265272 -14 17 C-15.32 17 -16.64 17 -18 17 C-16.125 11.125 -16.125 11.125 -15 10 C-14.76807135 8.48530552 -14.58784762 6.96245438 -14.4375 5.4375 C-14.35371094 4.61121094 -14.26992188 3.78492188 -14.18359375 2.93359375 C-14.12300781 2.29550781 -14.06242188 1.65742187 -14 1 C-9.23692563 0.04738513 -4.8333472 -0.08333357 0 0 Z " fill="#070405" transform="translate(941,49)"/>
<path d="M0 0 C0 1.98 0 3.96 0 6 C3.3 6 6.6 6 10 6 C9.67 8.97 9.34 11.94 9 15 C4.545 15.495 4.545 15.495 0 16 C-0.08160748 17.89510699 -0.13946459 19.79124504 -0.1875 21.6875 C-0.22230469 22.74324219 -0.25710938 23.79898438 -0.29296875 24.88671875 C0.03733125 28.39670676 0.91299308 30.19056761 3 33 C5.06700655 34.32793606 5.06700655 34.32793606 7 35 C5.35821735 39.77609498 2.73453298 43.79382904 0 48 C-6.99897391 46.36690609 -10.95756031 43.99147311 -15 38 C-18.05016081 31.89967838 -15.30172262 23.32265272 -14 17 C-15.32 17 -16.64 17 -18 17 C-16.125 11.125 -16.125 11.125 -15 10 C-14.76807135 8.48530552 -14.58784762 6.96245438 -14.4375 5.4375 C-14.35371094 4.61121094 -14.26992188 3.78492188 -14.18359375 2.93359375 C-14.12300781 2.29550781 -14.06242188 1.65742187 -14 1 C-9.23692563 0.04738513 -4.8333472 -0.08333357 0 0 Z " fill="#070405" transform="translate(862,49)"/>
<path d="M0 0 C0 1.98 0 3.96 0 6 C3.3 6 6.6 6 10 6 C9.67 8.97 9.34 11.94 9 15 C4.545 15.495 4.545 15.495 0 16 C-0.08160748 17.89510699 -0.13946459 19.79124504 -0.1875 21.6875 C-0.22230469 22.74324219 -0.25710938 23.79898438 -0.29296875 24.88671875 C0.03733125 28.39670676 0.91299308 30.19056761 3 33 C5.06700655 34.32793606 5.06700655 34.32793606 7 35 C5.35821735 39.77609498 2.73453298 43.79382904 0 48 C-6.99897391 46.36690609 -10.95756031 43.99147311 -15 38 C-18.05016081 31.89967838 -15.30172262 23.32265272 -14 17 C-15.32 17 -16.64 17 -18 17 C-16.125 11.125 -16.125 11.125 -15 10 C-14.76807135 8.48530552 -14.58784762 6.96245438 -14.4375 5.4375 C-14.35371094 4.61121094 -14.26992188 3.78492188 -14.18359375 2.93359375 C-14.12300781 2.29550781 -14.06242187 1.65742187 -14 1 C-9.23692563 0.04738513 -4.8333472 -0.08333357 0 0 Z " fill="#070405" transform="translate(366,49)"/>
<path d="M0 0 C0.16721596 5.67813837 0.32781538 11.35640975 0.48217773 17.03491211 C0.5356778 18.96823209 0.59101308 20.90150216 0.64819336 22.8347168 C0.72988175 25.60714959 0.80505352 28.37969258 0.87890625 31.15234375 C0.90594131 32.02213364 0.93297638 32.89192352 0.96083069 33.78807068 C1.01278164 35.85810315 1.01188571 37.92934984 1 40 C-1.06520348 42.06520348 -5.20496813 41.7328598 -8.0625 42.0625 C-10.681875 42.371875 -13.30125 42.68125 -16 43 C-15.67 33.1 -15.34 23.2 -15 13 C-15.99 13.495 -15.99 13.495 -17 14 C-18.99960012 14.039992 -21.00047242 14.04346799 -23 14 C-22.49609375 10.67578125 -22.49609375 10.67578125 -21 7 C-18.17602306 5.65715134 -16.03965731 4.88138451 -13.0625 4.1875 C-8.88674001 3.09833183 -3.91867608 0 0 0 Z " fill="#040508" transform="translate(401,54)"/>
<path d="M0 0 C0.16721596 5.67813837 0.32781538 11.35640975 0.48217773 17.03491211 C0.5356778 18.96823209 0.59101308 20.90150216 0.64819336 22.8347168 C0.72988175 25.60714959 0.80505352 28.37969258 0.87890625 31.15234375 C0.90594131 32.02213364 0.93297638 32.89192352 0.96083069 33.78807068 C1.01278164 35.85810315 1.01188571 37.92934984 1 40 C-1.06520348 42.06520348 -5.20496813 41.7328598 -8.0625 42.0625 C-10.681875 42.371875 -13.30125 42.68125 -16 43 C-15.67 33.1 -15.34 23.2 -15 13 C-15.99 13.495 -15.99 13.495 -17 14 C-18.99960012 14.039992 -21.00047242 14.04346799 -23 14 C-22.49609375 10.67578125 -22.49609375 10.67578125 -21 7 C-18.17602306 5.65715134 -16.03965731 4.88138451 -13.0625 4.1875 C-8.88674001 3.09833183 -3.91867608 0 0 0 Z " fill="#040508" transform="translate(206,54)"/>
<path d="M0 0 C4.3774331 1.55351689 6.29116707 3.18756847 9 7 C4.50839345 17.07818187 -6.60755567 23.98119449 -16.5 28 C-20 29 -20 29 -23 28 C-15.60421554 18.42042091 -7.94770396 9.12668273 0 0 Z " fill="#F4F6F4" transform="translate(581,50)"/>
<path d="M0 0 C4.3774331 1.55351689 6.29116707 3.18756847 9 7 C4.50839345 17.07818187 -6.60755567 23.98119449 -16.5 28 C-20 29 -20 29 -23 28 C-15.60421554 18.42042091 -7.94770396 9.12668273 0 0 Z " fill="#F4F6F4" transform="translate(66,50)"/>
<path d="M0 0 C2.875 1.5 2.875 1.5 5 4 C5.7975483 9.02455429 5.82360163 10.83726829 2.875 15 C0 17 0 17 -3 17.5625 C-6.80470451 16.8491179 -8.41196019 15.88381579 -11 13 C-12.0625 9.5625 -12.0625 9.5625 -12 6 C-8.68791982 0.74635558 -6.16206486 -0.60412401 0 0 Z " fill="#0A0808" transform="translate(395,33)"/>
<path d="M0 0 C2.875 1.5 2.875 1.5 5 4 C5.7975483 9.02455429 5.82360163 10.83726829 2.875 15 C0 17 0 17 -3 17.5625 C-6.80470451 16.8491179 -8.41196019 15.88381579 -11 13 C-12.0625 9.5625 -12.0625 9.5625 -12 6 C-8.68791982 0.74635558 -6.16206486 -0.60412401 0 0 Z " fill="#0A0808" transform="translate(200,33)"/>
<path d="M0 0 C4.95 0.99 4.95 0.99 10 2 C8.96234062 6.15063751 7.2411581 9.18452121 5 12.75 C4.63132813 13.35199219 4.26265625 13.95398438 3.8828125 14.57421875 C2.95364998 16.06969566 1.98051585 17.53767895 1 19 C0.67 19 0.34 19 0 19 C0 12.73 0 6.46 0 0 Z " fill="#EAF0EB" transform="translate(229,64)"/>
<path d="M0 0 C6.93359375 1.953125 6.93359375 1.953125 9 3 C9.9921875 4.81640625 9.9921875 4.81640625 10 7 C8.63671875 9.32421875 8.63671875 9.32421875 6.6875 11.6875 C6.05199219 12.47511719 5.41648437 13.26273438 4.76171875 14.07421875 C3 16 3 16 1 17 C0.67 11.39 0.34 5.78 0 0 Z " fill="#F8F9F1" transform="translate(890,66)"/>
<path d="M0 0 C6.93359375 1.953125 6.93359375 1.953125 9 3 C9.9921875 4.81640625 9.9921875 4.81640625 10 7 C8.63671875 9.32421875 8.63671875 9.32421875 6.6875 11.6875 C6.05199219 12.47511719 5.41648437 13.26273438 4.76171875 14.07421875 C3 16 3 16 1 17 C0.67 11.39 0.34 5.78 0 0 Z " fill="#F8F9F1" transform="translate(665,66)"/>
<path d="M0 0 C6.93359375 1.953125 6.93359375 1.953125 9 3 C9.9921875 4.81640625 9.9921875 4.81640625 10 7 C8.63671875 9.32421875 8.63671875 9.32421875 6.6875 11.6875 C6.05199219 12.47511719 5.41648437 13.26273438 4.76171875 14.07421875 C3 16 3 16 1 17 C0.67 11.39 0.34 5.78 0 0 Z " fill="#F8F9F1" transform="translate(424,66)"/>
<path d="M0 0 C2.97454134 0.32157204 4.59335278 0.62139742 6.8125 2.6875 C8.3082321 5.60024146 8.22022756 7.76999584 8 11 C5.03 11 2.06 11 -1 11 C-1.14285714 3.57142857 -1.14285714 3.57142857 0 0 Z " fill="#F0F0EA" transform="translate(970,64)"/>
<path d="M0 0 C2.97454134 0.32157204 4.59335278 0.62139742 6.8125 2.6875 C8.3082321 5.60024146 8.22022756 7.76999584 8 11 C5.03 11 2.06 11 -1 11 C-1.14285714 3.57142857 -1.14285714 3.57142857 0 0 Z " fill="#F0F0EA" transform="translate(626,64)"/>
<path d="M0 0 C2.97454134 0.32157204 4.59335278 0.62139742 6.8125 2.6875 C8.3082321 5.60024146 8.22022756 7.76999584 8 11 C5.03 11 2.06 11 -1 11 C-1.14285714 3.57142857 -1.14285714 3.57142857 0 0 Z " fill="#F0F0EA" transform="translate(277,64)"/>
<path d="M0 0 C2.97454134 0.32157204 4.59335278 0.62139742 6.8125 2.6875 C8.3082321 5.60024146 8.22022756 7.76999584 8 11 C5.03 11 2.06 11 -1 11 C-1.14285714 3.57142857 -1.14285714 3.57142857 0 0 Z " fill="#F0F0EA" transform="translate(111,64)"/>
</svg>
