<?xml version="1.0" encoding="UTF-8"?>
<svg version="1.1" xmlns="http://www.w3.org/2000/svg" width="431" height="116">
<path d="M0 0 C142.23 0 284.46 0 431 0 C431 38.28 431 76.56 431 116 C288.77 116 146.54 116 0 116 C0 77.72 0 39.44 0 0 Z " fill="#22B14C" transform="translate(0,0)"/>
<path d="M0 0 C0.76367386 0.02266937 1.52734772 0.04533875 2.31416321 0.06869507 C3.10518936 0.07339813 3.89621552 0.0781012 4.71121216 0.08294678 C7.23209911 0.10426394 9.75087072 0.160885 12.27119446 0.21713257 C13.97885702 0.23364111 15.68654193 0.24798881 17.39424133 0.26010132 C29.8880182 0.39645631 29.8880182 0.39645631 31.08369446 1.59213257 C31.72911881 6.35534294 29.97400591 8.87350591 27.36494446 12.76791382 C26.98761169 13.33793625 26.61027893 13.90795868 26.22151184 14.49525452 C25.01951391 16.30572274 23.80198255 18.10509648 22.58369446 19.90463257 C21.76363477 21.13375085 20.94461221 22.36356178 20.12666321 23.59408569 C18.12429115 26.60155102 16.1078551 29.59927552 14.08369446 32.59213257 C19.27462537 28.78994421 24.24321623 24.82935051 29.08369446 20.59213257 C44.27927305 7.4429325 44.27927305 7.4429325 51.70869446 7.46713257 C52.9036554 7.46326538 52.9036554 7.46326538 54.12275696 7.45932007 C56.08369446 7.59213257 56.08369446 7.59213257 57.08369446 8.59213257 C57.5742515 13.56305089 56.56447067 16.11231452 53.80244446 20.20932007 C52.78730774 21.73685913 52.78730774 21.73685913 51.75166321 23.29525757 C51.03623352 24.34197632 50.32080383 25.38869507 49.58369446 26.46713257 C48.86826477 27.53705444 48.15283508 28.60697632 47.41572571 29.70932007 C45.6504796 32.34542092 43.87296744 34.97230698 42.08369446 37.59213257 C48.36175923 33.65663995 54.54778117 29.66473943 60.52119446 25.27963257 C70.02970521 18.30812248 70.02970521 18.30812248 75.70869446 18.27963257 C76.8727179 18.25449585 76.8727179 18.25449585 78.06025696 18.22885132 C78.72799133 18.34873413 79.39572571 18.46861694 80.08369446 18.59213257 C82.08369446 21.59213257 82.08369446 21.59213257 82.11885071 24.20541382 C80.60371387 29.16248417 77.66507176 32.71068168 74.52119446 36.77963257 C73.24623395 38.46696566 71.9714934 40.15446498 70.69697571 41.84213257 C69.76812561 43.06029663 69.76812561 43.06029663 68.82051086 44.30307007 C66.57305216 47.26514103 64.3865009 50.26601934 62.20869446 53.27963257 C61.17744446 54.70275757 60.14619446 56.12588257 59.08369446 57.59213257 C65.35369446 57.92213257 71.62369446 58.25213257 78.08369446 58.59213257 C76.18383034 62.3918608 75.47270176 63.43549156 72.08369446 65.59213257 C68.66617793 66.73130475 66.04881509 66.70551737 62.44697571 66.68978882 C60.49888 66.68495483 60.49888 66.68495483 58.51142883 66.68002319 C57.13968338 66.67166788 55.76793859 66.66320294 54.39619446 66.65463257 C53.01273251 66.64961592 51.62926883 66.6450533 50.24580383 66.64096069 C46.85839051 66.62915786 43.47106412 66.61269275 40.08369446 66.59213257 C39.00166321 64.77963257 39.00166321 64.77963257 38.08369446 62.59213257 C41.14480448 55.59530967 46.44792275 49.62457909 51.08369446 43.59213257 C48.33116401 44.89218027 45.9360286 46.33149563 43.50947571 48.16635132 C42.84593079 48.6659436 42.18238586 49.16553589 41.49873352 49.68026733 C40.80489563 50.20805786 40.11105774 50.73584839 39.39619446 51.27963257 C38.68302063 51.81838013 37.9698468 52.35712769 37.23506165 52.91220093 C32.75571574 56.30226524 28.29722406 59.7182983 23.88056946 63.18978882 C23.28760071 63.65256226 22.69463196 64.11533569 22.08369446 64.59213257 C21.43400696 65.14385132 20.78431946 65.69557007 20.11494446 66.26400757 C16.78927878 68.43848128 13.9760645 67.78675107 10.08369446 67.59213257 C8.99482727 65.81478882 8.99482727 65.81478882 8.08369446 63.59213257 C10.83354536 56.70239624 15.18358722 50.70763612 19.33369446 44.59213257 C19.98338196 43.62662476 20.63306946 42.66111694 21.30244446 41.66635132 C22.89199671 39.3053987 24.48580867 36.94744943 26.08369446 34.59213257 C15.39380996 43.11687198 15.39380996 43.11687198 5.08369446 52.09213257 C-11.00479439 66.73678267 -11.00479439 66.73678267 -20.04130554 66.65463257 C-21.96329773 66.64109741 -21.96329773 66.64109741 -23.92411804 66.62728882 C-24.91153992 66.61568726 -25.89896179 66.60408569 -26.91630554 66.59213257 C-21.72614083 56.27042483 -15.23514796 46.84360078 -8.79130554 37.27963257 C-7.69581961 35.64645996 -6.60076443 34.01299832 -5.50614929 32.37924194 C-3.09742067 28.78559971 -0.6846608 25.19470593 1.73191833 21.6063385 C3.52199081 18.93905171 5.30183905 16.26491568 7.08369446 13.59213257 C-0.50630554 13.26213257 -8.09630554 12.93213257 -15.91630554 12.59213257 C-13.93630554 10.28213257 -11.95630554 7.97213257 -9.91630554 5.59213257 C-9.30230896 4.63355347 -8.68831238 3.67497437 -8.05570984 2.68734741 C-5.43895546 0.12464216 -3.59507523 0.0142859 0 0 Z " fill="#BE8463" transform="translate(48.91630554199219,18.407867431640625)"/>
<path d="M0 0 C1.30517578 -0.04125 2.61035156 -0.0825 3.95507812 -0.125 C13.19469031 -0.2008511 13.19469031 -0.2008511 16.31005859 1.75244141 C18.64896814 4.40717401 19.30239345 6.36356156 19.5625 9.875 C17.60756689 15.54430603 14.03376939 19.73485229 9 23 C3.75690584 23.97545938 -1.55741177 24.79883428 -6.25 21.9375 C-8.12315365 18.76128293 -8.48769257 16.16313613 -8.6875 12.5 C-8.3575 11.51 -8.0275 10.52 -7.6875 9.5 C-11.16298841 10.03977565 -11.16298841 10.03977565 -14.6875 11.5 C-17.13685272 16.50791226 -16.8475292 21.32666932 -16.6875 26.75 C-16.54240512 38.37198926 -17.25644626 47.48430501 -25.40625 56.375 C-30.51407581 61.23162127 -36.11934641 64.0604001 -42.6875 66.5 C-43.52152344 66.82097656 -44.35554688 67.14195313 -45.21484375 67.47265625 C-58.88460917 71.7883678 -78.67772862 72.11721496 -91.6875 65.5 C-94.97482901 63.20408767 -97.39000273 61.3626643 -98.6875 57.5 C-99.01181481 51.5542284 -97.52840907 47.08775251 -93.6875 42.5 C-86.84924062 36.03137626 -78.99922681 34.37587655 -69.890625 34.3671875 C-68.60285156 34.36589844 -67.31507813 34.36460938 -65.98828125 34.36328125 C-65.32393066 34.36537598 -64.65958008 34.3674707 -63.97509766 34.36962891 C-61.92993885 34.37501993 -59.88499611 34.36964939 -57.83984375 34.36328125 C-55.91591797 34.36521484 -55.91591797 34.36521484 -53.953125 34.3671875 C-52.77524414 34.36831543 -51.59736328 34.36944336 -50.38378906 34.37060547 C-47.6875 34.5 -47.6875 34.5 -46.6875 35.5 C-46.64657063 37.83297433 -46.64508277 40.16705225 -46.6875 42.5 C-47.81027344 42.53738281 -48.93304688 42.57476562 -50.08984375 42.61328125 C-63.32932271 42.99785991 -63.32932271 42.99785991 -75.25 48.25 C-77.25358171 51.38604094 -76.96736356 53.86177371 -76.6875 57.5 C-68.29319547 60.37387215 -60.61745193 61.86108346 -52.13671875 58.484375 C-46.45312146 55.54490406 -42.73100714 52.52282852 -40.58984375 46.3203125 C-39.63517211 42.27845593 -39.55650582 38.8926909 -39.6875 34.75 C-39.81911286 25.4119594 -39.82173339 16.70165667 -33.51953125 9.21875 C-24.07369715 0.35698667 -12.26576355 0.09778386 0 0 Z " fill="#BD8362" transform="translate(395.6875,18.5)"/>
<path d="M0 0 C120.78 0 241.56 0 366 0 C366 1.98 366 3.96 366 6 C245.22 6 124.44 6 0 6 C0 4.02 0 2.04 0 0 Z " fill="#B97A57" transform="translate(16,97)"/>
<path d="M0 0 C1.2858902 -0.00004028 2.5717804 -0.00008057 3.89663696 -0.00012207 C6.61534844 0.00152855 9.33323275 0.02017115 12.05175781 0.05175781 C15.52072934 0.09135678 18.98861483 0.09581088 22.45776939 0.08829498 C25.78447617 0.08446938 29.11084667 0.10533275 32.4375 0.125 C33.67623871 0.12520142 34.91497742 0.12540283 36.19125366 0.12561035 C43.79886586 0.22955656 49.49082493 0.49153071 55.2890625 5.84375 C57.35214141 9.47476889 57.41247095 11.45705021 56.8515625 15.59375 C53.50284285 26.20500538 44.48898222 31.0511259 35.21948242 35.9296875 C26.13329386 40.59375 26.13329386 40.59375 21.8515625 40.59375 C22.5115625 46.53375 23.1715625 52.47375 23.8515625 58.59375 C29.7915625 58.59375 35.7315625 58.59375 41.8515625 58.59375 C39.4377694 63.42133621 39.4377694 63.42133621 36.8515625 65.59375 C31.53863124 67.36472709 25.84899998 66.77839142 20.2890625 66.78125 C18.4028418 66.79961914 18.4028418 66.79961914 16.47851562 66.81835938 C15.28033203 66.82029297 14.08214844 66.82222656 12.84765625 66.82421875 C11.74607178 66.82832764 10.6444873 66.83243652 9.50952148 66.83666992 C6.8515625 66.59375 6.8515625 66.59375 4.8515625 64.59375 C4.34912109 62.62597656 4.34912109 62.62597656 4 60.234375 C3.80664062 58.93113281 3.80664062 58.93113281 3.609375 57.6015625 C3.48304688 56.69148438 3.35671875 55.78140625 3.2265625 54.84375 C3.0925 53.94914062 2.9584375 53.05453125 2.8203125 52.1328125 C2.16260473 47.58254857 1.68361111 43.204779 1.8515625 38.59375 C2.37999756 38.41312012 2.90843262 38.23249023 3.45288086 38.04638672 C19.10462382 33.59818249 19.10462382 33.59818249 31.05859375 23.62109375 C32.12509043 20.89443476 31.98327809 18.49149299 31.8515625 15.59375 C28.30244423 13.99222219 25.48791299 13.33275274 21.60229492 13.27490234 C20.07127388 13.24509781 20.07127388 13.24509781 18.50932312 13.21469116 C17.4195668 13.20313995 16.32981049 13.19158875 15.20703125 13.1796875 C14.0821077 13.16032135 12.95718414 13.1409552 11.798172 13.1210022 C8.21187884 13.0613129 4.62555341 13.01486306 1.0390625 12.96875 C-1.39519614 12.93056047 -3.82944142 12.89150817 -6.26367188 12.8515625 C-12.22514155 12.75562002 -18.18669203 12.67054125 -24.1484375 12.59375 C-22.70516898 10.87273909 -21.25025201 9.1672019 -19.76504517 7.48205566 C-18.00263948 5.48198458 -18.00263948 5.48198458 -16.09521484 2.69335938 C-11.18555114 -0.80482686 -5.86878144 -0.07742293 0 0 Z " fill="#BC8160" transform="translate(251.1484375,18.40625)"/>
<path d="M0 0 C1.2858902 -0.00004028 2.5717804 -0.00008057 3.89663696 -0.00012207 C6.61534844 0.00152855 9.33323275 0.02017115 12.05175781 0.05175781 C15.52072934 0.09135678 18.98861483 0.09581088 22.45776939 0.08829498 C25.78447617 0.08446938 29.11084667 0.10533275 32.4375 0.125 C33.67623871 0.12520142 34.91497742 0.12540283 36.19125366 0.12561035 C43.79886586 0.22955656 49.49082493 0.49153071 55.2890625 5.84375 C57.35214141 9.47476889 57.41247095 11.45705021 56.8515625 15.59375 C53.50284285 26.20500538 44.48898222 31.0511259 35.21948242 35.9296875 C26.13329386 40.59375 26.13329386 40.59375 21.8515625 40.59375 C22.5115625 46.53375 23.1715625 52.47375 23.8515625 58.59375 C29.7915625 58.59375 35.7315625 58.59375 41.8515625 58.59375 C39.4377694 63.42133621 39.4377694 63.42133621 36.8515625 65.59375 C31.53863124 67.36472709 25.84899998 66.77839142 20.2890625 66.78125 C18.4028418 66.79961914 18.4028418 66.79961914 16.47851562 66.81835938 C15.28033203 66.82029297 14.08214844 66.82222656 12.84765625 66.82421875 C11.74607178 66.82832764 10.6444873 66.83243652 9.50952148 66.83666992 C6.8515625 66.59375 6.8515625 66.59375 4.8515625 64.59375 C4.34912109 62.62597656 4.34912109 62.62597656 4 60.234375 C3.80664062 58.93113281 3.80664062 58.93113281 3.609375 57.6015625 C3.48304688 56.69148438 3.35671875 55.78140625 3.2265625 54.84375 C3.0925 53.94914062 2.9584375 53.05453125 2.8203125 52.1328125 C2.16260473 47.58254857 1.68361111 43.204779 1.8515625 38.59375 C2.37999756 38.41312012 2.90843262 38.23249023 3.45288086 38.04638672 C19.10462382 33.59818249 19.10462382 33.59818249 31.05859375 23.62109375 C32.12509043 20.89443476 31.98327809 18.49149299 31.8515625 15.59375 C28.30244423 13.99222219 25.48791299 13.33275274 21.60229492 13.27490234 C20.07127388 13.24509781 20.07127388 13.24509781 18.50932312 13.21469116 C17.4195668 13.20313995 16.32981049 13.19158875 15.20703125 13.1796875 C14.0821077 13.16032135 12.95718414 13.1409552 11.798172 13.1210022 C8.21187884 13.0613129 4.62555341 13.01486306 1.0390625 12.96875 C-1.39519614 12.93056047 -3.82944142 12.89150817 -6.26367188 12.8515625 C-12.22514155 12.75562002 -18.18669203 12.67054125 -24.1484375 12.59375 C-22.70516898 10.87273909 -21.25025201 9.1672019 -19.76504517 7.48205566 C-18.00263948 5.48198458 -18.00263948 5.48198458 -16.09521484 2.69335938 C-11.18555114 -0.80482686 -5.86878144 -0.07742293 0 0 Z " fill="#BC8160" transform="translate(168.1484375,18.40625)"/>
<path d="M0 0 C2.3828125 0.1171875 2.3828125 0.1171875 4.78125 0.421875 C5.60367188 0.47601563 6.42609375 0.53015625 7.2734375 0.5859375 C9.28066431 0.72597658 11.28240595 0.94123915 13.28125 1.171875 C11.92169931 4.89958104 10.22490781 7.99149952 8.0078125 11.27734375 C7.35304932 12.2530835 6.69828613 13.22882324 6.02368164 14.23413086 C5.3249292 15.26546143 4.62617676 16.29679199 3.90625 17.359375 C2.45955105 19.51035992 1.01293736 21.6614022 -0.43359375 23.8125 C-1.15401855 24.88048828 -1.87444336 25.94847656 -2.61669922 27.04882812 C-6.16182997 32.31587952 -9.66757825 37.60910793 -13.17529297 42.90112305 C-16.608072 48.061197 -16.608072 48.061197 -17.71875 49.171875 C-19.06142413 49.25819374 -20.40849322 49.27893973 -21.75390625 49.26953125 C-22.56279297 49.26630859 -23.37167969 49.26308594 -24.20507812 49.25976562 C-25.05521484 49.25138672 -25.90535156 49.24300781 -26.78125 49.234375 C-27.63525391 49.22986328 -28.48925781 49.22535156 -29.36914062 49.22070312 C-31.48570663 49.20887873 -33.60223685 49.19094269 -35.71875 49.171875 C-31.0455615 40.94983308 -26.07222189 33.00884011 -20.78125 25.171875 C-20.11673828 24.181875 -19.45222656 23.191875 -18.76757812 22.171875 C-17.43073113 20.18021935 -16.08458804 18.19477048 -14.72900391 16.21582031 C-13.34016201 14.11282289 -12.02297786 11.96136725 -10.76708984 9.77636719 C-5.27543738 0.5017589 -5.27543738 0.5017589 0 0 Z " fill="#BE8464" transform="translate(251.71875,35.828125)"/>
<path d="M0 0 C2.3828125 0.1171875 2.3828125 0.1171875 4.78125 0.421875 C5.60367188 0.47601563 6.42609375 0.53015625 7.2734375 0.5859375 C9.28066431 0.72597658 11.28240595 0.94123915 13.28125 1.171875 C11.92169931 4.89958104 10.22490781 7.99149952 8.0078125 11.27734375 C7.35304932 12.2530835 6.69828613 13.22882324 6.02368164 14.23413086 C5.3249292 15.26546143 4.62617676 16.29679199 3.90625 17.359375 C2.45955105 19.51035992 1.01293736 21.6614022 -0.43359375 23.8125 C-1.15401855 24.88048828 -1.87444336 25.94847656 -2.61669922 27.04882812 C-6.16182997 32.31587952 -9.66757825 37.60910793 -13.17529297 42.90112305 C-16.608072 48.061197 -16.608072 48.061197 -17.71875 49.171875 C-19.06142413 49.25819374 -20.40849322 49.27893973 -21.75390625 49.26953125 C-22.56279297 49.26630859 -23.37167969 49.26308594 -24.20507812 49.25976562 C-25.05521484 49.25138672 -25.90535156 49.24300781 -26.78125 49.234375 C-27.63525391 49.22986328 -28.48925781 49.22535156 -29.36914062 49.22070312 C-31.48570663 49.20887873 -33.60223685 49.19094269 -35.71875 49.171875 C-31.0455615 40.94983308 -26.07222189 33.00884011 -20.78125 25.171875 C-20.11673828 24.181875 -19.45222656 23.191875 -18.76757812 22.171875 C-17.43073113 20.18021935 -16.08458804 18.19477048 -14.72900391 16.21582031 C-13.34016201 14.11282289 -12.02297786 11.96136725 -10.76708984 9.77636719 C-5.27543738 0.5017589 -5.27543738 0.5017589 0 0 Z " fill="#BE8464" transform="translate(168.71875,35.828125)"/>
<path d="M0 0 C0.66 0.33 1.32 0.66 2 1 C0.88121617 2.17262904 -0.24523051 3.33795138 -1.375 4.5 C-2.00148438 5.1496875 -2.62796875 5.799375 -3.2734375 6.46875 C-5 8 -5 8 -7 8 C-5.50902342 4.2047869 -3.24299151 2.38957269 0 0 Z " fill="#DAA97F" transform="translate(307,57)"/>
<path d="M0 0 C0.99 0.33 1.98 0.66 3 1 C0.36 3.64 -2.28 6.28 -5 9 C-5.66 8.67 -6.32 8.34 -7 8 C-4.69 5.36 -2.38 2.72 0 0 Z " fill="#D8A476" transform="translate(43,19)"/>
<path d="M0 0 C0.99 0.33 1.98 0.66 3 1 C-0.465 3.97 -0.465 3.97 -4 7 C-3.04065919 3.16263678 -2.76390737 2.40339772 0 0 Z " fill="#D8AB7E" transform="translate(365,25)"/>
</svg>
