<?xml version="1.0" encoding="UTF-8"?>
<svg version="1.1" xmlns="http://www.w3.org/2000/svg" width="358" height="110">
<path d="M0 0 C118.14 0 236.28 0 358 0 C358 36.3 358 72.6 358 110 C239.86 110 121.72 110 0 110 C0 73.7 0 37.4 0 0 Z " fill="#22B14C" transform="translate(0,0)"/>
<path d="M0 0 C11.34924925 9.59466865 14.83846788 27.06535481 18 41 C18 41.99 18 42.98 18 44 C18.99 44 19.98 44 21 44 C21.28987793 43.42024414 21.57975586 42.84048828 21.87841797 42.24316406 C24.91894531 36.16210937 27.95947266 30.08105469 31 24 C29.78763672 24.05220703 29.78763672 24.05220703 28.55078125 24.10546875 C27.48214844 24.13253906 26.41351563 24.15960938 25.3125 24.1875 C23.72888672 24.23970703 23.72888672 24.23970703 22.11328125 24.29296875 C18.60061975 23.96241717 16.78130093 23.13907326 14 21 C13.1440482 17.73182041 13.58712557 15.81121104 15.109375 12.8203125 C21.49636455 2.62173241 29.8646907 -2.77455623 41.59765625 -5.6328125 C43.88405357 -5.98227811 46.00294451 -6.10164501 48.3125 -6.0625 C50.1378125 -6.0315625 50.1378125 -6.0315625 52 -6 C51.67 -2.37 51.34 1.26 51 5 C52.65 5 54.3 5 56 5 C55 8 55 8 52.890625 9.16796875 C52.01921875 9.50441406 51.1478125 9.84085938 50.25 10.1875 C49.38890625 10.53167969 48.5278125 10.87585938 47.640625 11.23046875 C45 12 45 12 40 12 C40.33 8.04 40.66 4.08 41 0 C31.15909886 2.93866035 31.15909886 2.93866035 24 10 C23.83300768 13.12521833 23.83300768 13.12521833 24 16 C26.31 16.66 28.62 17.32 31 18 C31 15.03 31 12.06 31 9 C33.375 9.3125 33.375 9.3125 36 10 C38.1519437 13.22791555 38.20086443 14.28400809 38 18 C38.99 17.505 38.99 17.505 40 17 C45.39099438 16.72588164 49.94547377 16.8615466 55 19 C58.09912064 22.25804991 59.25232428 24.89914526 59.4375 29.3125 C58.89709491 39.39443246 54.42742001 46.47639786 47.45703125 53.5703125 C40.28819395 59.98959309 33.90653124 60.53375872 24.55078125 60.3671875 C19.94421027 59.89082042 17.63381435 58.78874125 14 56 C13.01 55.505 13.01 55.505 12 55 C9.89175554 55.73610022 9.89175554 55.73610022 7.625 56.875 C-2.2750293 61.60979662 -15.78431633 61.8661549 -26.1875 58.4375 C-35.33262188 54.39663219 -41.34207687 47.4349718 -45.11328125 38.3046875 C-46.21696816 34.19138737 -46.34344723 30.42727106 -46.3125 26.1875 C-46.30686035 25.38650879 -46.3012207 24.58551758 -46.29541016 23.76025391 C-46.09632305 14.08383206 -43.65980787 7.18086863 -37 0 C-26.40027127 -8.75629765 -10.93851272 -7.71676382 0 0 Z " fill="#C59175" transform="translate(287,27)"/>
<path d="M0 0 C2.14660236 2.69426923 1.86229135 5.11637687 1.75390625 8.44921875 C0.93449549 12.76629953 -2.14427002 14.60528589 -5.54296875 16.984375 C-8.60458659 17.97489842 -11.4776061 17.79458126 -14.66796875 17.671875 C-14.35669359 16.08830041 -14.04389586 14.50502507 -13.73046875 12.921875 C-13.55644531 12.04015625 -13.38242188 11.1584375 -13.203125 10.25 C-12.74428387 8.03952447 -12.23460801 5.85675432 -11.66796875 3.671875 C-14.14810504 4.14641371 -16.62700131 4.62626485 -19.10546875 5.109375 C-19.81251953 5.24408203 -20.51957031 5.37878906 -21.24804688 5.51757812 C-24.75226139 5.95594398 -24.75226139 5.95594398 -27.66796875 7.671875 C-25.68796875 8.001875 -23.70796875 8.331875 -21.66796875 8.671875 C-22.16455172 14.33292089 -23.21307559 18.54861971 -25.66796875 23.671875 C-26.20164063 23.44371094 -26.7353125 23.21554688 -27.28515625 22.98046875 C-34.78118407 20.08840265 -41.41504324 20.0168937 -48.85546875 23.234375 C-53.37837793 25.78599586 -57.02854527 29.18404792 -59.66796875 33.671875 C-60.22110553 36.60200499 -60.04336929 38.66867064 -59.66796875 41.671875 C-57.68796875 42.001875 -55.70796875 42.331875 -53.66796875 42.671875 C-54.00828125 41.125 -54.00828125 41.125 -54.35546875 39.546875 C-54.71678001 35.06661544 -54.13602446 33.37395856 -51.66796875 29.671875 C-48.54304049 26.62918169 -46.08833663 24.77467425 -41.66796875 24.671875 C-36.5249123 25.94978312 -32.6154832 28.09444003 -28.66796875 31.671875 C-33.56136958 41.92206688 -38.97701114 49.12257462 -49.95703125 53.0078125 C-56.59958263 54.63495045 -63.12630771 55.03300862 -69.16796875 51.484375 C-73.89493038 48.00289911 -76.75135657 44.21868059 -78.66796875 38.671875 C-79.84361195 29.77252935 -78.03393559 22.32277524 -72.78515625 15.0703125 C-61.53597761 1.72451275 -47.01000789 -3.54828628 -30.0625 -5.078125 C-20.3017415 -5.75502134 -8.03048775 -6.39429938 0 0 Z " fill="#22B14C" transform="translate(215.66796875,29.328125)"/>
<path d="M0 0 C2.14660236 2.69426923 1.86229135 5.11637687 1.75390625 8.44921875 C0.93449549 12.76629953 -2.14427002 14.60528589 -5.54296875 16.984375 C-8.60458659 17.97489842 -11.4776061 17.79458126 -14.66796875 17.671875 C-14.35669359 16.08830041 -14.04389586 14.50502507 -13.73046875 12.921875 C-13.55644531 12.04015625 -13.38242188 11.1584375 -13.203125 10.25 C-12.74428387 8.03952447 -12.23460801 5.85675432 -11.66796875 3.671875 C-14.14810504 4.14641371 -16.62700131 4.62626485 -19.10546875 5.109375 C-19.81251953 5.24408203 -20.51957031 5.37878906 -21.24804688 5.51757812 C-24.75226139 5.95594398 -24.75226139 5.95594398 -27.66796875 7.671875 C-25.68796875 8.001875 -23.70796875 8.331875 -21.66796875 8.671875 C-22.16455172 14.33292089 -23.21307559 18.54861971 -25.66796875 23.671875 C-26.20164063 23.44371094 -26.7353125 23.21554688 -27.28515625 22.98046875 C-34.78118407 20.08840265 -41.41504324 20.0168937 -48.85546875 23.234375 C-53.37837793 25.78599586 -57.02854527 29.18404792 -59.66796875 33.671875 C-60.22110553 36.60200499 -60.04336929 38.66867064 -59.66796875 41.671875 C-57.68796875 42.001875 -55.70796875 42.331875 -53.66796875 42.671875 C-54.00828125 41.125 -54.00828125 41.125 -54.35546875 39.546875 C-54.71678001 35.06661544 -54.13602446 33.37395856 -51.66796875 29.671875 C-48.54304049 26.62918169 -46.08833663 24.77467425 -41.66796875 24.671875 C-36.5249123 25.94978312 -32.6154832 28.09444003 -28.66796875 31.671875 C-33.56136958 41.92206688 -38.97701114 49.12257462 -49.95703125 53.0078125 C-56.59958263 54.63495045 -63.12630771 55.03300862 -69.16796875 51.484375 C-73.89493038 48.00289911 -76.75135657 44.21868059 -78.66796875 38.671875 C-79.84361195 29.77252935 -78.03393559 22.32277524 -72.78515625 15.0703125 C-61.53597761 1.72451275 -47.01000789 -3.54828628 -30.0625 -5.078125 C-20.3017415 -5.75502134 -8.03048775 -6.39429938 0 0 Z " fill="#22B14C" transform="translate(107.66796875,29.328125)"/>
<path d="M0 0 C10.96364646 -0.26817552 22.5843092 0.47384585 31.27734375 7.80859375 C32.90184874 11.56526154 32.88411214 15.10486488 32.27734375 19.12109375 C29.74567444 24.30498806 24.70813493 26.22646542 19.73828125 28.69140625 C17.02086058 30.02827756 17.02086058 30.02827756 15.27734375 33.12109375 C13.21875 33.37890625 13.21875 33.37890625 10.83984375 33.24609375 C7.81769495 33.0967289 6.21219211 33.14281096 3.27734375 34.12109375 C2.94734375 35.11109375 2.61734375 36.10109375 2.27734375 37.12109375 C5.23469424 40.30161891 8.22107735 43.45093976 11.23730469 46.57543945 C12.25807147 47.64135429 13.27060224 48.71522215 14.27441406 49.79711914 C19.64584612 56.11885509 19.64584612 56.11885509 26.78125 59.58154297 C29.22302705 59.35880739 29.22302705 59.35880739 32.27734375 58.12109375 C32.27734375 61.12109375 32.27734375 61.12109375 30.95703125 62.7265625 C30.36148438 63.24863281 29.7659375 63.77070312 29.15234375 64.30859375 C28.57226562 64.83839844 27.9921875 65.36820312 27.39453125 65.9140625 C24.45146704 67.5919349 22.63457707 67.5024808 19.27734375 67.12109375 C16.66845703 65.19335938 16.66845703 65.19335938 14.09765625 62.52734375 C13.64002899 62.06122681 13.18240173 61.59510986 12.71090698 61.11486816 C11.25996838 59.63048148 9.83133663 58.12658827 8.40234375 56.62109375 C7.41937218 55.60801139 6.4350105 54.59627586 5.44921875 53.5859375 C3.04229787 51.11305019 0.65494007 48.62222625 -1.72265625 46.12109375 C-5.10495645 49.4786947 -5.10495645 49.4786947 -8.390625 52.9296875 C-16.65250165 61.78624935 -26.8722806 67.05221437 -38.95947266 67.52368164 C-47.16952711 67.65033081 -54.20008569 67.27006065 -60.51953125 61.47265625 C-66.39941487 55.06078316 -67.19317304 49.25467817 -67.0234375 40.6875 C-66.16832071 30.54825802 -61.00354293 23.93187594 -53.72265625 17.12109375 C-38.69895229 4.482495 -19.08128387 0.84866542 0 0 Z M-47.97265625 19.21875 C-54.28533098 25.7983209 -57.81647192 32.55617335 -58.22265625 41.74609375 C-57.97100857 47.68497897 -56.39943217 52.31548904 -52.26171875 56.65234375 C-46.56201394 61.62873577 -42.3074672 62.58315797 -34.88671875 62.4296875 C-26.44613543 61.60647011 -19.12362556 57.6645758 -13.72265625 51.12109375 C-11.44503343 47.23258812 -9.51421939 43.25390418 -7.72265625 39.12109375 C-9.11342926 38.29996198 -10.51054518 37.4895688 -11.91015625 36.68359375 C-12.68746094 36.23113281 -13.46476562 35.77867188 -14.265625 35.3125 C-18.44770129 33.28462517 -20.81022913 32.83295887 -25.28515625 34.24609375 C-28.95890864 36.24995869 -30.63825079 37.51346891 -32.72265625 41.12109375 C-33.56063718 44.55219678 -34.35890641 47.84859343 -32.72265625 51.12109375 C-34.70265625 50.79109375 -36.68265625 50.46109375 -38.72265625 50.12109375 C-39.22430332 46.10791722 -39.52784819 43.49016629 -37.4453125 39.94921875 C-32.27622755 33.71349723 -26.79860335 30.37444657 -18.78515625 29.18359375 C-13.62231913 28.81539141 -9.43409773 30.10678181 -4.72265625 32.12109375 C-2.26776309 26.99783846 -1.21923922 22.78213964 -0.72265625 17.12109375 C-2.70265625 16.79109375 -4.68265625 16.46109375 -6.72265625 16.12109375 C-1.48655638 14.19200432 3.80869918 13.13700796 9.27734375 12.12109375 C9.06078125 12.88035156 8.84421875 13.63960937 8.62109375 14.421875 C8.34265625 15.41574219 8.06421875 16.40960938 7.77734375 17.43359375 C7.49890625 18.41972656 7.22046875 19.40585937 6.93359375 20.421875 C6.15922179 23.14396578 6.15922179 23.14396578 6.27734375 26.12109375 C12.40796621 26.62155273 15.34575239 25.50551919 20.27734375 22.12109375 C22.9442041 18.12080323 23.10381357 14.82430347 22.27734375 10.12109375 C17.55544922 4.70480296 10.82918505 3.8478815 3.96484375 3.37109375 C-15.08863903 2.28219632 -33.61732003 5.83538967 -47.97265625 19.21875 Z " fill="#C48F72" transform="translate(194.72265625,20.87890625)"/>
<path d="M0 0 C10.96364646 -0.26817552 22.5843092 0.47384585 31.27734375 7.80859375 C32.90184874 11.56526154 32.88411214 15.10486488 32.27734375 19.12109375 C29.74567444 24.30498806 24.70813493 26.22646542 19.73828125 28.69140625 C17.02086058 30.02827756 17.02086058 30.02827756 15.27734375 33.12109375 C13.21875 33.37890625 13.21875 33.37890625 10.83984375 33.24609375 C7.81769495 33.0967289 6.21219211 33.14281096 3.27734375 34.12109375 C2.94734375 35.11109375 2.61734375 36.10109375 2.27734375 37.12109375 C5.23469424 40.30161891 8.22107735 43.45093976 11.23730469 46.57543945 C12.25807147 47.64135429 13.27060224 48.71522215 14.27441406 49.79711914 C19.64584612 56.11885509 19.64584612 56.11885509 26.78125 59.58154297 C29.22302705 59.35880739 29.22302705 59.35880739 32.27734375 58.12109375 C32.27734375 61.12109375 32.27734375 61.12109375 30.95703125 62.7265625 C30.36148438 63.24863281 29.7659375 63.77070312 29.15234375 64.30859375 C28.57226562 64.83839844 27.9921875 65.36820312 27.39453125 65.9140625 C24.45146704 67.5919349 22.63457707 67.5024808 19.27734375 67.12109375 C16.66845703 65.19335938 16.66845703 65.19335938 14.09765625 62.52734375 C13.64002899 62.06122681 13.18240173 61.59510986 12.71090698 61.11486816 C11.25996838 59.63048148 9.83133663 58.12658827 8.40234375 56.62109375 C7.41937218 55.60801139 6.4350105 54.59627586 5.44921875 53.5859375 C3.04229787 51.11305019 0.65494007 48.62222625 -1.72265625 46.12109375 C-5.10495645 49.4786947 -5.10495645 49.4786947 -8.390625 52.9296875 C-16.65250165 61.78624935 -26.8722806 67.05221437 -38.95947266 67.52368164 C-47.16952711 67.65033081 -54.20008569 67.27006065 -60.51953125 61.47265625 C-66.39941487 55.06078316 -67.19317304 49.25467817 -67.0234375 40.6875 C-66.16832071 30.54825802 -61.00354293 23.93187594 -53.72265625 17.12109375 C-38.69895229 4.482495 -19.08128387 0.84866542 0 0 Z M-47.97265625 19.21875 C-54.28533098 25.7983209 -57.81647192 32.55617335 -58.22265625 41.74609375 C-57.97100857 47.68497897 -56.39943217 52.31548904 -52.26171875 56.65234375 C-46.56201394 61.62873577 -42.3074672 62.58315797 -34.88671875 62.4296875 C-26.44613543 61.60647011 -19.12362556 57.6645758 -13.72265625 51.12109375 C-11.44503343 47.23258812 -9.51421939 43.25390418 -7.72265625 39.12109375 C-9.11342926 38.29996198 -10.51054518 37.4895688 -11.91015625 36.68359375 C-12.68746094 36.23113281 -13.46476562 35.77867188 -14.265625 35.3125 C-18.44770129 33.28462517 -20.81022913 32.83295887 -25.28515625 34.24609375 C-28.95890864 36.24995869 -30.63825079 37.51346891 -32.72265625 41.12109375 C-33.56063718 44.55219678 -34.35890641 47.84859343 -32.72265625 51.12109375 C-34.70265625 50.79109375 -36.68265625 50.46109375 -38.72265625 50.12109375 C-39.22430332 46.10791722 -39.52784819 43.49016629 -37.4453125 39.94921875 C-32.27622755 33.71349723 -26.79860335 30.37444657 -18.78515625 29.18359375 C-13.62231913 28.81539141 -9.43409773 30.10678181 -4.72265625 32.12109375 C-2.26776309 26.99783846 -1.21923922 22.78213964 -0.72265625 17.12109375 C-2.70265625 16.79109375 -4.68265625 16.46109375 -6.72265625 16.12109375 C-1.48655638 14.19200432 3.80869918 13.13700796 9.27734375 12.12109375 C9.06078125 12.88035156 8.84421875 13.63960937 8.62109375 14.421875 C8.34265625 15.41574219 8.06421875 16.40960938 7.77734375 17.43359375 C7.49890625 18.41972656 7.22046875 19.40585937 6.93359375 20.421875 C6.15922179 23.14396578 6.15922179 23.14396578 6.27734375 26.12109375 C12.40796621 26.62155273 15.34575239 25.50551919 20.27734375 22.12109375 C22.9442041 18.12080323 23.10381357 14.82430347 22.27734375 10.12109375 C17.55544922 4.70480296 10.82918505 3.8478815 3.96484375 3.37109375 C-15.08863903 2.28219632 -33.61732003 5.83538967 -47.97265625 19.21875 Z " fill="#C48F72" transform="translate(86.72265625,20.87890625)"/>
<path d="M0 0 C6.59278237 5.36292989 9.28726584 12.98943752 11.75 20.875 C12.19001343 22.24072144 12.19001343 22.24072144 12.63891602 23.6340332 C13.51975679 26.37781262 14.3854185 29.12606137 15.25 31.875 C15.76869838 33.4937567 16.28818075 35.11226247 16.80859375 36.73046875 C17.26916456 38.17418109 17.72885619 39.61817432 18.1875 41.0625 C18.39890625 41.72701172 18.6103125 42.39152344 18.828125 43.07617188 C20.25 47.63681176 20.25 47.63681176 20.25 49.875 C19.00264433 50.5259259 17.75198168 51.17051669 16.5 51.8125 C15.80390625 52.17214844 15.1078125 52.53179687 14.390625 52.90234375 C7.47139663 56.0462997 -0.87579537 56.16948365 -8.0234375 53.78125 C-19.03128058 48.56846789 -24.53621459 42.24525567 -28.75 30.875 C-31.0312742 23.75509963 -30.9387475 14.70157666 -28.0625 7.8125 C-24.99417135 2.05002912 -21.15540996 -1.69301461 -14.92578125 -3.74609375 C-9.50380822 -4.69031526 -4.55162585 -2.90277223 0 0 Z " fill="#22B14C" transform="translate(277.75,28.125)"/>
<path d="M0 0 C109.89 0 219.78 0 333 0 C333 1.32 333 2.64 333 4 C223.11 4 113.22 4 0 4 C0 2.68 0 1.36 0 0 Z " fill="#B97A57" transform="translate(13,97)"/>
<path d="M0 0 C0.33 0.99 0.66 1.98 1 3 C0.07421875 4.61328125 0.07421875 4.61328125 -1.3125 6.3125 C-6.95308524 13.24605606 -6.75626321 21.4689821 -6 30 C-3.44936088 40.5838376 1.81499727 48.44434269 10.99609375 54.265625 C17.40031676 57.60287149 23.90284532 57.76581594 31 57 C33.00642344 56.3529224 35.00776084 55.68951256 37 55 C39.375 55.375 39.375 55.375 41 56 C40 59 40 59 38.26318359 59.93383789 C32.6253855 61.76209703 27.54446977 62.51442343 21.625 62.4375 C20.79572998 62.42920166 19.96645996 62.42090332 19.11206055 62.41235352 C9.39384387 62.1455417 1.83982153 59.74041323 -5.28125 52.92578125 C-11.88543932 45.52608731 -14.3800875 38.00304885 -14.3125 28.1875 C-14.30976074 27.39013428 -14.30702148 26.59276855 -14.30419922 25.77124023 C-14.17713237 18.62701644 -13.04698569 13.07047853 -9 7 C-7.33720673 5.9935725 -5.67016516 4.99414593 -4 4 C-2.63015802 2.70420353 -1.2848951 1.38007251 0 0 Z " fill="#C59174" transform="translate(255,25)"/>
<path d="M0 0 C1.6266848 0.28211877 3.25132896 0.57602375 4.875 0.875 C5.77992188 1.03742187 6.68484375 1.19984375 7.6171875 1.3671875 C10 2 10 2 12 4 C13.80639477 11.52664489 12.2889966 17.25660096 8.375 23.6875 C4.87923284 28.59175586 0.91139953 32.19024631 -5.11328125 33.4375 C-8.65741975 33.65108273 -10.87234523 33.07333359 -13.9375 31.3125 C-16.18903896 28.78804723 -16.72253508 27.32957907 -17 24 C-15.989375 23.236875 -14.97875 22.47375 -13.9375 21.6875 C-7.31859959 16.02182866 -3.0487341 8.0701785 0 0 Z " fill="#22B14C" transform="translate(325,51)"/>
<path d="M0 0 C-0.1875 2.25 -0.1875 2.25 -1 5 C-2.65002828 6.35386936 -4.3174387 7.68678142 -6 9 C-8.25441673 12.97206757 -8.17659715 16.49677268 -8 21 C-10.9375 20.625 -10.9375 20.625 -14 20 C-15.50889469 16.98221063 -15.50026276 15.37677363 -15 12 C-11.90743547 7.35221515 -6.10331978 0 0 0 Z " fill="#CA9A7F" transform="translate(170,51)"/>
<path d="M0 0 C-0.1875 2.25 -0.1875 2.25 -1 5 C-2.65002828 6.35386936 -4.3174387 7.68678142 -6 9 C-8.25441673 12.97206757 -8.17659715 16.49677268 -8 21 C-10.9375 20.625 -10.9375 20.625 -14 20 C-15.50889469 16.98221063 -15.50026276 15.37677363 -15 12 C-11.90743547 7.35221515 -6.10331978 0 0 0 Z " fill="#CA9A7F" transform="translate(62,51)"/>
<path d="M0 0 C0.495 1.485 0.495 1.485 1 3 C-0.63195312 3.14695312 -0.63195312 3.14695312 -2.296875 3.296875 C-10.51909687 4.10906208 -17.98747435 5.25937823 -25.77734375 8.1953125 C-28 9 -28 9 -30 9 C-30 8.34 -30 7.68 -30 7 C-30.66 6.67 -31.32 6.34 -32 6 C-21.2106879 2.51630362 -11.39007001 -0.36742161 0 0 Z " fill="#D0A78F" transform="translate(189,22)"/>
<path d="M0 0 C0.495 1.485 0.495 1.485 1 3 C-0.63195312 3.14695312 -0.63195312 3.14695312 -2.296875 3.296875 C-10.51909687 4.10906208 -17.98747435 5.25937823 -25.77734375 8.1953125 C-28 9 -28 9 -30 9 C-30 8.34 -30 7.68 -30 7 C-30.66 6.67 -31.32 6.34 -32 6 C-21.2106879 2.51630362 -11.39007001 -0.36742161 0 0 Z " fill="#D0A78F" transform="translate(81,22)"/>
<path d="M0 0 C0.66 0.33 1.32 0.66 2 1 C-1.63 4.63 -5.26 8.26 -9 12 C-9.66 11.67 -10.32 11.34 -11 11 C-9.73347137 9.53792657 -8.46161082 8.08047074 -7.1875 6.625 C-6.47980469 5.81289063 -5.77210938 5.00078125 -5.04296875 4.1640625 C-3 2 -3 2 0 0 Z " fill="#D9A67A" transform="translate(314,27)"/>
<path d="M0 0 C0 0.66 0 1.32 0 2 C0.99 2.33 1.98 2.66 3 3 C1.35 3.66 -0.3 4.32 -2 5 C-2.33 4.34 -2.66 3.68 -3 3 C-4.98 4.98 -6.96 6.96 -9 9 C-9.66 8.67 -10.32 8.34 -11 8 C-3.21621622 0 -3.21621622 0 0 0 Z " fill="#DAB18C" transform="translate(258,23)"/>
<path d="M0 0 C-0.33 0.33 -0.66 0.66 -1 1 C-0.34 1.66 0.32 2.32 1 3 C-2.96 4.98 -2.96 4.98 -7 7 C-6.75 4.125 -6.75 4.125 -6 1 C-2.77922078 -1.38961039 -2.77922078 -1.38961039 0 0 Z " fill="#CFA997" transform="translate(322,25)"/>
<path d="M0 0 C0.66 0.66 1.32 1.32 2 2 C-1.63 2.33 -5.26 2.66 -9 3 C-9 2.34 -9 1.68 -9 1 C-5.98675805 -0.50662097 -3.31713623 -0.17770373 0 0 Z " fill="#CA9E85" transform="translate(177,24)"/>
<path d="M0 0 C0.66 0.66 1.32 1.32 2 2 C-1.63 2.33 -5.26 2.66 -9 3 C-9 2.34 -9 1.68 -9 1 C-5.98675805 -0.50662097 -3.31713623 -0.17770373 0 0 Z " fill="#CA9E85" transform="translate(69,24)"/>
<path d="M0 0 C0 0.99 0 1.98 0 3 C-1.98 3 -3.96 3 -6 3 C-6.33 2.34 -6.66 1.68 -7 1 C-4.53721199 -0.231394 -2.7204945 -0.07159196 0 0 Z " fill="#D5A886" transform="translate(194,35)"/>
<path d="M0 0 C0 0.99 0 1.98 0 3 C-1.98 3 -3.96 3 -6 3 C-6.33 2.34 -6.66 1.68 -7 1 C-4.53721199 -0.231394 -2.7204945 -0.07159196 0 0 Z " fill="#D5A886" transform="translate(86,35)"/>
</svg>
